<?xml version="1.0" standalone="no"?>
<!DOCTYPE svg PUBLIC "-//W3C//DTD SVG 20010904//EN"
 "http://www.w3.org/TR/2001/REC-SVG-20010904/DTD/svg10.dtd">
<svg version="1.0" xmlns="http://www.w3.org/2000/svg"
 width="500.000000pt" height="500.000000pt" viewBox="0 0 500.000000 500.000000"
 preserveAspectRatio="xMidYMid meet">
<metadata>
Created by potrace 1.14, written by Peter Selinger 2001-2017
</metadata>
<g transform="translate(0.000000,500.000000) scale(0.100000,-0.100000)"
fill="#000000" stroke="none">
<path d="M2380 4982 c0 -7 -5 -11 -11 -9 -6 1 -13 -6 -14 -16 -2 -9 1 -15 5
-12 5 3 8 -15 7 -40 -1 -29 3 -49 12 -54 16 -10 16 -22 -1 -32 -7 -5 -8 -9 -2
-9 6 0 11 -7 11 -15 0 -8 -4 -15 -9 -15 -4 0 -8 -5 -8 -10 0 -7 7 -7 21 1 18
9 19 13 8 21 -10 7 -8 8 9 5 12 -3 20 -1 16 4 -3 5 -11 9 -17 9 -12 0 -14 10
-19 93 -1 26 -6 47 -11 47 -5 0 -4 7 3 15 7 9 10 18 6 22 -3 3 -6 1 -6 -5z"/>
<path d="M2307 4924 c-7 -7 2 -34 12 -34 4 0 7 9 7 20 0 20 -7 25 -19 14z"/>
<path d="M2335 4871 c-3 -5 -2 -12 3 -15 5 -3 9 1 9 9 0 17 -3 19 -12 6z"/>
<path d="M2325 4820 c-3 -5 -1 -10 5 -10 7 0 10 -6 7 -14 -3 -7 0 -19 6 -25 9
-9 8 -14 -3 -21 -10 -7 -11 -10 -2 -10 6 0 12 -9 12 -19 0 -11 5 -23 11 -27 6
-3 9 -14 6 -24 -2 -9 0 -25 5 -34 9 -16 7 -16 -11 -7 -22 12 -30 27 -8 16 6
-4 3 1 -8 10 -11 9 -19 21 -17 26 1 5 -2 9 -8 9 -13 0 -13 -17 1 -26 8 -4 7
-9 -2 -15 -12 -7 -12 -9 0 -9 11 0 11 -3 0 -17 -12 -15 -12 -16 4 -10 13 5 17
1 17 -14 0 -17 3 -18 21 -8 13 7 19 7 15 1 -3 -6 -2 -13 4 -17 5 -3 10 -1 10
6 0 7 3 9 6 6 4 -4 1 -13 -6 -22 -11 -13 -10 -14 5 -9 13 5 16 4 11 -4 -4 -7
0 -15 9 -18 12 -5 13 -9 4 -20 -9 -12 -9 -13 4 -8 19 7 36 -22 31 -54 -3 -17
0 -21 8 -16 10 6 10 4 2 -7 -6 -8 -10 -22 -9 -31 5 -28 -68 -123 -93 -122 -11
0 -19 -4 -15 -8 3 -5 -4 -12 -16 -15 -12 -3 -21 -10 -21 -15 0 -6 -6 -8 -14
-5 -8 3 -17 -2 -21 -11 -4 -12 -8 -13 -14 -4 -5 9 -13 7 -27 -10 -15 -18 -15
-20 -1 -9 9 7 17 9 17 3 0 -13 -42 -31 -78 -34 -7 -1 -10 -8 -7 -17 3 -8 3
-12 -1 -9 -3 4 -15 -3 -24 -15 l-18 -22 1 27 c1 14 6 26 11 25 4 -1 10 6 11
17 2 10 13 24 24 32 13 9 18 21 14 31 -4 10 -2 14 5 9 6 -3 13 -2 17 4 4 6 11
7 17 4 7 -4 8 -2 4 5 -6 9 -11 9 -22 0 -10 -8 -14 -8 -14 -1 0 6 -10 1 -23
-11 -13 -12 -22 -25 -20 -29 2 -5 0 -8 -6 -8 -6 0 -20 -22 -32 -50 -12 -27
-27 -50 -33 -50 -6 0 -5 -4 3 -9 9 -6 10 -11 2 -15 -6 -4 -9 -12 -6 -17 4 -5
1 -9 -4 -9 -6 0 -11 -6 -11 -14 0 -8 -11 -37 -25 -64 -14 -28 -25 -55 -25 -60
0 -6 -6 -13 -12 -15 -10 -4 -10 -6 -1 -6 7 -1 10 -8 7 -16 -4 -8 -11 -12 -16
-9 -6 4 -6 -1 1 -13 6 -11 8 -23 4 -27 -11 -10 -6 -141 6 -163 14 -27 14 -33
0 -33 -5 0 -7 6 -3 13 6 9 5 9 -8 0 -8 -7 -17 -12 -19 -10 -2 1 -2 0 -1 -3 4
-5 8 -6 33 -9 6 0 9 -8 6 -16 -4 -8 -1 -17 5 -21 7 -5 8 -2 3 6 -6 9 -4 11 4
5 9 -5 10 -10 2 -18 -14 -14 -14 -30 -1 -22 6 4 7 -1 3 -11 -4 -11 -3 -15 5
-10 6 3 14 2 17 -4 4 -6 1 -9 -6 -8 -6 2 -14 -3 -17 -11 -3 -9 0 -11 8 -6 9 5
11 4 6 -3 -4 -7 -3 -12 1 -12 11 0 11 -46 0 -56 -4 -5 -5 -1 -2 8 4 9 1 19 -4
23 -6 3 -9 10 -6 15 3 5 0 12 -6 16 -8 4 -9 3 -5 -4 5 -8 2 -10 -8 -6 -24 9
-19 -13 7 -31 12 -8 21 -18 20 -20 -7 -13 -2 -25 10 -22 7 1 11 -6 9 -17 -3
-17 -1 -18 11 -8 12 11 20 7 42 -20 15 -18 24 -27 19 -19 -5 10 -3 12 5 7 7
-5 10 -15 6 -23 -4 -13 -3 -14 10 -3 10 8 15 9 15 1 0 -6 7 -11 15 -11 8 0 15
-5 15 -11 0 -5 4 -8 9 -5 16 10 20 -21 5 -42 -13 -19 -12 -20 9 -17 12 1 31 6
42 10 17 6 16 3 -5 -15 -14 -12 -20 -19 -14 -16 6 3 20 -3 32 -14 16 -16 21
-16 26 -5 6 17 -9 29 -26 19 -6 -4 -8 -3 -4 4 3 6 15 10 26 9 10 -1 17 -3 15
-5 -2 -3 0 -14 6 -25 7 -11 7 -17 1 -13 -5 3 -12 -3 -15 -14 -3 -13 -1 -18 6
-13 7 4 8 0 3 -13 -4 -10 -4 -15 0 -11 4 4 14 1 22 -6 13 -10 15 -9 8 3 -4 8
0 6 9 -5 9 -11 20 -19 24 -18 9 2 8 -48 -1 -62 -4 -6 -3 -17 3 -25 14 -23 11
-36 -4 -15 -11 14 -16 15 -22 5 -5 -9 -4 -11 3 -6 8 5 12 -1 12 -14 0 -14 4
-19 13 -14 9 5 9 4 0 -6 -6 -7 -10 -18 -9 -24 2 -6 1 -8 -1 -3 -3 4 -10 4 -15
1 -7 -5 -8 -2 -3 6 6 10 4 12 -7 7 -12 -4 -14 -1 -11 14 3 11 0 20 -8 21 -8 0
-18 2 -24 2 -5 1 -15 4 -20 8 -6 4 -11 -2 -11 -13 0 -13 5 -18 16 -14 11 4 11
2 -2 -8 -10 -8 -14 -18 -10 -22 4 -5 0 -6 -10 -2 -9 3 -23 -2 -33 -13 -17 -18
-17 -19 4 -15 14 3 21 -1 21 -12 0 -13 2 -14 18 -2 15 12 16 12 5 -2 -7 -9
-10 -19 -6 -22 3 -4 2 -7 -3 -7 -6 0 -15 5 -22 12 -7 7 -12 10 -13 7 0 -2 -2
-12 -4 -22 -2 -12 1 -17 9 -14 7 3 13 -1 13 -9 0 -7 -5 -10 -10 -7 -6 4 -25 7
-43 8 -18 2 -38 6 -46 11 -7 4 -5 -2 5 -13 14 -16 15 -23 6 -29 -8 -5 -10 -3
-4 6 5 8 4 11 -3 6 -6 -4 -8 -14 -5 -23 4 -10 2 -14 -4 -10 -11 7 -11 -22 1
-41 4 -6 1 -21 -7 -33 -9 -13 -17 -16 -22 -10 -3 6 -11 11 -17 11 -6 0 -1 -9
12 -20 12 -11 28 -17 34 -13 6 4 2 -4 -8 -16 -25 -27 -32 -63 -12 -55 8 3 12
12 9 20 -3 8 -1 14 5 14 14 0 8 -33 -6 -38 -19 -6 -14 -22 6 -16 16 5 16 5 -1
-6 -9 -6 -15 -15 -12 -20 3 -4 -4 -6 -15 -3 -11 3 -18 9 -15 13 3 5 -1 15 -8
22 -11 11 -11 16 -2 25 7 7 16 9 21 5 4 -4 4 -2 1 5 -4 6 0 19 9 27 14 15 14
16 0 16 -9 0 -16 -7 -16 -16 0 -14 -2 -15 -17 -3 -16 13 -17 12 -4 -4 13 -16
12 -19 -7 -23 -14 -4 -19 -11 -15 -22 4 -8 2 -13 -3 -9 -11 6 -11 -39 -1 -50
11 -11 8 -20 -8 -20 -8 0 -12 3 -10 7 2 4 -2 7 -10 7 -8 0 -12 -4 -10 -8 8
-12 -7 -39 -18 -32 -5 3 -7 1 -3 -5 3 -6 2 -13 -3 -16 -5 -4 -8 -14 -7 -24 2
-9 -2 -21 -8 -25 -7 -6 -6 -7 4 -4 8 2 14 9 13 15 -2 6 4 9 12 5 13 -4 12 -9
-6 -24 -21 -18 -21 -19 -3 -20 18 0 18 -1 -1 -9 -27 -12 -37 -12 -31 -1 5 8
-6 8 -32 2 -2 -1 4 -8 12 -17 9 -8 14 -20 11 -25 -4 -5 -1 -9 6 -9 8 0 7 -5
-2 -17 -10 -12 -10 -15 -1 -9 15 9 34 -34 21 -48 -13 -15 -11 -28 4 -20 10 6
10 4 0 -7 -7 -7 -13 -24 -13 -38 0 -21 2 -23 10 -11 6 9 10 10 10 3 0 -7 -8
-17 -17 -22 -10 -6 -13 -11 -6 -11 6 0 10 -11 8 -26 -1 -16 2 -24 10 -21 6 3
12 -1 12 -8 0 -8 -3 -14 -6 -13 -18 2 -22 -4 -11 -17 6 -8 13 -34 13 -59 1
-24 5 -42 9 -40 3 2 5 17 4 34 -1 16 2 30 7 30 4 0 5 5 2 10 -3 6 -1 10 4 10
6 0 11 10 11 22 0 21 0 21 -14 2 -8 -10 -18 -16 -22 -11 -4 4 -2 7 4 7 14 0
16 36 3 44 -8 5 -8 14 -2 45 1 2 8 -2 16 -9 8 -7 12 -16 9 -21 -3 -5 5 -19 18
-30 13 -11 18 -18 12 -15 -6 3 -11 0 -11 -7 0 -7 -4 -19 -7 -28 -5 -10 -2 -16
9 -16 10 0 13 6 9 19 -3 10 -1 18 5 18 6 0 11 -8 11 -17 0 -19 -20 -55 -20
-37 0 6 -7 11 -15 11 -8 0 -15 -4 -15 -9 0 -4 5 -8 11 -8 7 0 9 -12 6 -32 -5
-29 -5 -30 5 -10 6 12 15 22 20 22 5 0 3 -10 -3 -23 -11 -20 -11 -21 5 -8 15
12 16 12 10 -5 -4 -10 -3 -15 1 -11 5 4 15 -3 23 -15 7 -13 11 -15 8 -6 -3 10
0 20 6 24 7 4 8 3 4 -4 -4 -7 -2 -12 4 -12 6 0 8 -5 5 -10 -6 -9 8 -15 29 -11
5 1 1 -10 -8 -24 -10 -15 -15 -29 -12 -32 3 -3 1 -14 -5 -24 -8 -15 -6 -17 8
-12 16 6 16 5 4 -10 -9 -12 -10 -17 -2 -17 7 0 9 -5 6 -11 -5 -6 -12 -4 -22 8
-8 10 -12 13 -9 6 4 -6 2 -14 -3 -18 -6 -3 -8 5 -5 19 3 19 -2 30 -21 42 -20
13 -23 19 -13 25 11 7 11 9 0 9 -7 0 -10 5 -7 10 3 6 1 10 -4 10 -9 0 -9 -37
0 -47 6 -9 4 -30 -5 -42 -9 -12 -7 -13 6 -8 10 3 20 1 24 -5 4 -6 3 -8 -4 -4
-6 3 -13 2 -17 -4 -3 -5 1 -10 10 -10 9 0 13 -5 10 -10 -4 -6 -3 -10 2 -9 19
3 34 -2 29 -10 -4 -5 -1 -11 6 -13 8 -3 6 -7 -5 -11 -9 -3 -16 -3 -14 1 1 4
-2 7 -8 7 -5 0 -9 -3 -7 -7 7 -23 6 -31 -8 -35 -13 -4 -13 -3 0 6 12 9 12 11
-3 17 -11 4 -16 14 -13 29 3 18 1 22 -15 18 -10 -3 -19 -1 -19 5 0 5 -6 12
-13 15 -8 3 -14 -1 -14 -8 0 -8 3 -14 6 -13 3 0 16 -3 27 -7 15 -5 20 -13 17
-26 -3 -11 0 -19 8 -19 7 0 9 -3 6 -7 -11 -10 13 -32 29 -26 8 3 14 0 14 -7 0
-6 -5 -8 -12 -4 -8 5 -9 0 -5 -17 5 -22 5 -22 -7 -7 -15 20 -31 25 -20 6 5 -8
0 -7 -11 2 -14 11 -17 12 -11 1 6 -9 5 -12 -5 -9 -8 3 -13 11 -11 17 3 16 -3
14 -19 -6 -12 -15 -12 -16 1 -8 8 4 12 4 7 0 -10 -12 -98 -14 -91 -3 3 5 1 15
-6 23 -7 9 -8 15 0 20 5 3 10 13 10 21 0 8 -4 13 -9 10 -5 -4 -4 5 2 18 6 13
17 22 23 19 20 -7 27 17 10 36 -9 10 -16 23 -16 30 0 7 -5 9 -10 6 -8 -5 -8
-11 0 -20 6 -7 7 -20 4 -29 -5 -14 -9 -14 -22 -4 -13 11 -15 10 -9 -5 4 -11 5
-23 1 -28 -7 -13 -45 9 -42 24 2 7 -1 12 -7 12 -5 0 -9 -4 -7 -10 2 -5 -2 -4
-10 3 -11 11 -10 14 1 21 11 7 46 8 46 1 0 -1 11 -3 23 -6 16 -3 22 0 19 8 -2
7 -9 12 -14 11 -5 -1 -9 7 -9 17 0 11 6 16 14 13 7 -3 12 0 10 8 -2 8 3 13 10
11 8 -1 11 2 7 8 -9 15 -31 12 -45 -5 -12 -14 -54 -14 -68 0 -4 3 8 4 25 1 21
-4 35 -1 44 11 12 15 12 16 -8 11 -17 -4 -20 -2 -16 10 5 11 2 14 -11 9 -9 -4
-15 -3 -12 2 4 5 -3 7 -14 4 -17 -5 -18 -8 -8 -22 11 -14 11 -14 -3 -4 -9 7
-15 23 -14 35 1 13 0 28 -4 33 -7 12 -8 18 -10 50 -1 20 -6 24 -23 22 -12 -2
-24 -10 -26 -18 -2 -10 -1 -11 5 -2 5 7 14 9 22 4 9 -6 5 -14 -17 -32 -24 -19
-28 -28 -21 -44 9 -20 9 -20 6 0 -3 13 5 27 21 39 17 13 23 15 20 5 -3 -8 -1
-22 4 -31 5 -12 5 -18 -2 -18 -5 0 -10 6 -11 13 0 6 -4 3 -8 -8 -10 -24 -2
-57 11 -49 5 3 4 12 -3 20 -8 10 -8 14 0 14 11 0 15 -13 12 -39 -2 -8 2 -10
11 -5 11 6 11 5 0 -8 -10 -13 -10 -17 0 -20 8 -3 6 -7 -6 -11 -9 -4 -15 -3
-12 2 3 5 -2 15 -12 22 -15 12 -16 12 -6 -1 6 -8 10 -23 8 -33 -1 -12 2 -17
11 -13 8 3 17 0 21 -6 4 -7 3 -8 -4 -4 -7 4 -12 2 -12 -4 0 -6 -6 -8 -12 -4
-7 4 -10 4 -6 -1 4 -4 3 -17 -3 -28 -6 -10 -7 -17 -1 -14 5 4 9 -6 8 -22 -1
-29 -14 -36 -28 -16 -5 6 -8 5 -8 -3 0 -7 6 -15 14 -18 15 -6 16 -28 1 -41 -4
-5 -5 -2 0 6 6 11 4 13 -10 8 -9 -4 -23 -3 -30 3 -9 8 -12 4 -9 -16 2 -20 0
-24 -9 -15 -6 6 -19 11 -29 11 -16 0 -23 11 -19 33 1 5 -3 5 -9 2 -8 -5 -6
-14 4 -30 10 -15 12 -26 6 -30 -6 -3 -10 -5 -11 -3 0 2 -2 12 -4 22 -2 10 -10
23 -17 27 -7 5 -9 9 -4 9 5 0 3 7 -4 15 -7 8 -9 15 -4 15 5 0 2 5 -6 10 -12 8
-12 10 -1 10 11 0 10 5 -3 24 -11 18 -13 27 -4 32 7 5 8 3 3 -6 -5 -9 -4 -11
4 -6 6 4 9 12 5 17 -3 5 -10 6 -16 3 -6 -4 -8 1 -3 15 3 11 2 21 -2 21 -9 0
-14 -38 -17 -111 -1 -27 -5 -36 -16 -34 -8 2 -17 4 -20 4 -2 1 1 6 7 12 6 6 9
18 6 27 -5 11 -2 13 8 8 8 -4 6 -1 -5 8 -18 15 -13 42 6 30 7 -4 8 -2 4 5 -4
6 -11 9 -16 6 -5 -3 -12 -1 -15 5 -5 8 -11 8 -20 0 -8 -7 -18 -9 -23 -6 -5 3
-9 -1 -9 -9 0 -8 4 -12 9 -9 13 8 43 -19 46 -41 2 -15 -1 -13 -13 8 -17 29
-28 37 -19 12 4 -8 1 -15 -6 -15 -6 0 -8 -5 -4 -12 4 -7 3 -8 -5 -4 -9 6 -9
11 0 22 9 11 8 14 -5 14 -11 0 -15 7 -12 23 2 12 8 21 13 20 5 -1 10 4 10 11
0 8 -8 11 -17 9 -12 -3 -19 3 -22 21 -3 17 -1 23 6 19 6 -3 8 -3 4 2 -4 4 -3
14 4 22 6 8 7 13 2 12 -5 -1 -16 -1 -24 0 -13 1 -13 2 0 11 13 8 13 11 1 22
-12 11 -13 10 -6 -2 7 -12 6 -13 -6 -2 -12 11 -12 14 0 21 9 6 5 9 -13 9 -30
0 -32 -4 -11 -24 18 -19 20 -38 3 -28 -9 5 -9 2 1 -9 9 -11 10 -17 2 -17 -6 0
-11 -5 -11 -11 0 -5 4 -8 9 -5 4 3 8 -8 7 -23 -1 -16 -5 -27 -10 -24 -4 3 -5
-4 -1 -16 3 -11 2 -21 -3 -21 -17 0 -21 12 -11 37 8 21 6 30 -10 44 -16 15
-21 16 -31 4 -8 -10 -8 -15 1 -21 8 -5 9 -3 4 7 -7 11 -6 12 7 2 8 -7 18 -10
21 -6 12 12 7 -12 -7 -29 -10 -14 -15 -15 -25 -5 -10 9 -11 6 -7 -17 3 -16 2
-25 -2 -21 -4 3 -8 11 -8 16 -1 5 -2 13 -3 18 -2 15 -38 19 -38 5 0 -8 7 -14
16 -15 12 0 11 -3 -4 -9 -11 -5 -14 -9 -7 -9 6 -1 12 -6 12 -12 0 -5 -3 -8 -7
-6 -5 3 -14 -1 -21 -9 -11 -12 -9 -14 10 -15 13 0 17 -3 10 -6 -6 -2 -10 -8
-8 -12 3 -4 -1 -8 -9 -8 -8 0 -11 5 -8 10 3 6 1 7 -5 3 -19 -12 -14 -36 6 -29
10 4 7 -2 -8 -14 -14 -11 -35 -23 -46 -27 -12 -4 -24 -16 -27 -26 -3 -11 -1
-18 3 -15 5 3 11 1 15 -5 3 -5 12 -10 18 -10 7 0 4 7 -5 14 -20 15 -25 31 -6
20 7 -4 8 -3 4 4 -4 7 -3 12 3 12 5 0 18 3 28 6 10 3 14 2 8 -3 -5 -4 -11 -19
-13 -33 -3 -29 -22 -43 -39 -28 -7 6 -13 7 -13 2 0 -4 -11 3 -25 16 l-24 23 4
-23 c5 -26 15 -40 15 -21 0 7 5 9 12 4 7 -4 16 -8 21 -9 4 -1 9 -3 12 -4 3 -1
9 -3 14 -4 5 0 13 -5 18 -10 5 -5 3 -6 -4 -2 -8 5 -21 -6 -34 -28 -24 -41 -29
-45 -22 -15 5 20 3 21 -21 15 -15 -4 -25 -3 -22 2 3 5 -1 9 -9 9 -8 0 -15 -5
-15 -11 0 -6 -7 -2 -15 8 -15 19 -15 19 -15 -2 0 -12 -6 -22 -12 -22 -8 0 -9
-3 -3 -8 6 -4 10 -16 10 -26 0 -26 -30 -29 -32 -4 -1 12 -11 30 -23 43 -11 12
-17 25 -13 29 5 4 8 35 9 69 0 49 -4 65 -18 75 -10 7 -18 18 -18 24 0 7 6 4
13 -7 11 -14 16 -15 22 -5 5 9 4 11 -3 6 -7 -4 -12 -1 -12 7 0 15 -29 32 -38
22 -3 -3 0 -5 6 -5 8 0 9 -7 2 -26 -7 -16 -7 -23 0 -19 14 9 12 -9 -2 -23 -9
-9 -9 -12 1 -12 9 0 10 -4 4 -12 -5 -7 -8 -26 -7 -41 2 -24 1 -27 -12 -17 -8
8 -14 8 -14 2 0 -5 7 -12 14 -15 10 -4 14 -18 13 -40 -2 -31 -4 -34 -21 -25
-13 7 -16 7 -12 -1 4 -6 2 -11 -4 -11 -6 0 -9 -4 -5 -9 3 -5 2 -12 -3 -15 -5
-3 -9 0 -10 7 0 7 -3 21 -5 32 -2 11 1 24 7 28 7 6 6 7 -4 4 -17 -4 -20 -24
-8 -49 6 -12 5 -18 -4 -19 -7 0 1 -7 17 -14 17 -8 26 -14 20 -15 -5 0 -4 -4 4
-9 23 -15 21 -47 -3 -47 -12 1 -20 -5 -18 -12 1 -8 -2 -11 -8 -7 -8 5 -8 11
-1 19 8 9 7 13 -4 13 -8 0 -12 -4 -9 -9 3 -4 -1 -8 -8 -8 -10 0 -10 -2 1 -9
10 -7 11 -13 1 -31 -8 -15 -8 -20 -1 -16 6 4 11 1 11 -8 0 -19 -17 -30 -22
-14 -3 7 -7 5 -11 -6 -4 -9 -3 -15 3 -11 12 8 8 -38 -5 -47 -6 -5 -6 -8 3 -8
6 0 12 -5 12 -11 0 -5 -4 -8 -9 -5 -5 3 -11 -1 -15 -9 -3 -8 0 -17 6 -21 7 -4
8 -3 4 4 -4 7 -2 12 4 12 7 0 10 -5 8 -12 -5 -14 -38 -20 -38 -6 0 5 -8 8 -17
6 -10 -1 -25 1 -33 6 -12 7 -12 6 -3 -4 6 -7 9 -20 6 -29 -4 -11 -1 -10 10 4
8 11 19 17 23 12 4 -4 2 -7 -5 -7 -7 0 -9 -5 -6 -10 4 -6 12 -7 18 -3 8 4 7 1
-1 -9 -10 -13 -10 -17 0 -21 10 -4 9 -6 -2 -7 -8 -1 -23 -3 -32 -5 -10 -2 -18
2 -18 8 0 5 -3 7 -7 4 -3 -4 -15 0 -25 10 -10 9 -18 13 -18 9 0 -5 14 -21 31
-37 18 -16 24 -26 14 -22 -13 4 -16 3 -11 -5 4 -7 2 -12 -5 -12 -13 0 -3 -14
12 -16 30 -4 32 -6 15 -13 -11 -4 -21 -18 -23 -30 -3 -19 0 -22 17 -18 11 3
20 0 20 -6 0 -7 5 -5 10 3 8 13 10 12 10 -4 0 -14 -5 -17 -24 -12 -31 8 -41
-7 -19 -25 14 -12 16 -12 8 1 -6 12 -6 13 6 2 25 -23 10 -72 -22 -72 -7 0 -4
-7 7 -15 18 -15 18 -15 0 -8 -13 4 -17 3 -13 -5 4 -6 -1 -13 -10 -16 -10 -3
-6 -4 10 -2 15 2 30 -1 34 -7 3 -5 1 -7 -5 -3 -6 3 -13 2 -17 -4 -3 -5 -2 -10
3 -10 5 0 29 -19 53 -42 24 -23 53 -43 63 -45 24 -4 44 -20 58 -46 7 -13 7
-17 0 -13 -6 4 -10 -2 -9 -14 1 -19 9 -22 67 -22 39 0 46 2 68 22 12 11 25 20
31 20 14 0 151 -67 146 -71 -2 -3 12 -9 31 -15 24 -8 34 -8 34 0 0 7 3 6 8 -1
5 -7 28 -15 53 -17 24 -2 51 -6 59 -9 8 -3 29 -8 45 -10 17 -3 44 -11 60 -18
17 -6 39 -13 50 -15 24 -4 58 -12 65 -14 3 -2 19 -3 35 -5 17 -1 32 -3 35 -5
3 -1 18 -4 34 -6 16 -2 33 -9 37 -16 5 -7 9 -8 9 -3 0 6 5 3 10 -5 8 -12 10
-12 10 -1 0 11 3 11 15 1 8 -7 15 -9 15 -5 0 4 8 1 17 -6 11 -10 14 -10 9 -2
-9 16 -1 16 26 2 15 -8 19 -8 14 0 -4 6 -2 11 3 11 6 0 11 -5 11 -11 0 -5 4
-7 10 -4 5 3 10 1 10 -6 0 -8 5 -7 17 2 9 8 14 9 10 3 -4 -7 0 -15 9 -18 8 -3
12 -2 9 4 -3 6 -2 10 4 10 5 0 12 -6 14 -12 4 -10 6 -10 6 0 1 10 6 10 21 2
11 -6 25 -8 30 -5 6 3 10 2 10 -2 0 -5 25 -9 55 -8 30 0 55 -2 55 -5 0 -3 19
-6 42 -7 24 0 75 -4 113 -7 60 -6 84 -8 138 -15 5 -1 5 -7 1 -14 -6 -9 -5 -9
7 0 12 10 18 10 27 1 7 -7 12 -8 12 -2 0 6 24 11 53 12 28 1 60 2 70 2 10 1
30 5 43 10 16 6 24 6 24 -1 0 -6 3 -8 8 -6 4 3 32 8 62 11 30 4 58 12 62 19 4
7 8 8 8 4 0 -5 14 0 32 11 32 20 32 20 70 1 21 -10 49 -20 63 -21 14 -1 25 -6
25 -10 0 -9 23 -6 30 4 9 11 94 18 110 8 8 -5 27 -2 47 8 30 14 35 14 43 2 6
-8 10 -10 10 -5 0 6 15 11 34 12 18 1 56 16 84 33 37 22 67 33 109 36 32 3 69
6 83 8 14 2 32 0 40 -5 9 -4 29 -2 45 5 54 23 98 35 106 30 5 -3 9 0 9 7 0 7
3 9 7 6 3 -4 12 -2 20 4 7 6 13 9 13 5 0 -7 83 25 90 35 10 15 171 89 180 84
19 -12 50 -14 50 -4 0 6 5 7 10 4 6 -3 13 1 16 9 3 9 12 16 20 16 8 0 14 5 14
10 0 20 48 59 76 62 30 3 52 17 88 55 36 36 43 48 40 65 -1 11 3 15 14 11 10
-4 13 -2 8 5 -3 6 2 15 11 21 16 9 16 12 3 21 -13 9 -13 10 0 10 12 0 13 2 1
9 -7 5 -11 14 -7 20 5 7 1 8 -10 4 -13 -5 -15 -3 -9 8 7 11 6 12 -7 2 -8 -7
-18 -10 -21 -6 -4 3 1 12 11 19 13 10 14 12 2 11 -8 -2 -22 -7 -30 -12 -9 -5
-8 0 4 13 20 23 9 31 -13 9 -7 -6 -12 -7 -11 -2 5 22 -1 35 -15 35 -9 0 -12 6
-8 16 7 20 -13 34 -41 28 -21 -3 -21 -3 -2 11 11 8 14 15 7 15 -7 0 -9 5 -6
10 4 6 10 8 14 6 4 -3 8 5 8 17 2 20 1 20 -8 4 -6 -9 -14 -15 -19 -12 -5 3 -7
-4 -5 -15 2 -11 -1 -20 -7 -20 -5 0 -8 7 -4 15 3 8 -2 21 -10 30 -9 8 -11 15
-5 15 7 0 7 8 1 25 -5 14 -7 25 -4 25 4 0 1 7 -6 15 -7 8 -10 15 -6 15 3 0 1
12 -4 26 -8 19 -7 23 3 18 9 -6 9 -4 -1 8 -11 14 -10 17 5 21 15 4 14 5 -4 6
-16 1 -21 6 -18 21 2 11 7 25 10 30 3 5 0 7 -9 4 -11 -4 -13 0 -9 15 3 13 1
21 -6 21 -7 0 -9 -5 -6 -10 4 -6 1 -18 -7 -27 -9 -12 -9 -15 0 -9 6 4 12 2 12
-3 0 -6 -4 -11 -9 -11 -6 0 -8 -8 -6 -19 3 -14 -1 -18 -17 -13 -15 4 -17 7 -6
13 10 7 10 9 -2 9 -13 0 -13 1 0 10 8 5 11 10 5 10 -5 0 -17 -5 -25 -10 -11
-7 -11 -10 -2 -10 7 0 11 -4 7 -10 -10 -16 -56 11 -50 29 2 9 0 23 -5 30 -5 9
-5 22 1 33 5 10 6 18 2 17 -4 -1 -11 0 -15 1 -5 1 -14 3 -20 4 -7 0 -13 13
-12 29 1 15 -2 27 -7 27 -4 0 -7 9 -6 20 1 11 5 20 10 20 5 0 6 -7 3 -16 -5
-14 -4 -15 8 -5 12 10 13 17 3 31 -8 14 -13 16 -19 7 -4 -7 -8 -7 -9 -2 -5 46
-2 72 11 83 13 11 11 11 -8 2 -12 -6 -20 -16 -16 -22 5 -7 -2 -9 -20 -4 -18 4
-25 3 -21 -4 3 -5 15 -10 26 -10 28 0 23 -15 -6 -16 -16 -1 -25 3 -25 13 0 8
-4 12 -9 9 -4 -3 -13 6 -19 19 -7 14 -16 25 -21 25 -12 0 -9 33 4 42 6 5 5 8
-2 8 -7 0 -13 5 -13 11 0 5 6 7 13 3 10 -6 10 -4 0 7 -9 9 -13 50 -13 128 0
63 -2 112 -5 110 -2 -3 -7 -39 -10 -80 -3 -40 -6 -83 -8 -94 -2 -11 1 -26 6
-32 7 -9 4 -13 -7 -13 -15 0 -21 17 -16 50 1 8 -1 12 -5 8 -3 -3 -7 -12 -9
-20 -1 -7 -5 -19 -10 -26 -5 -8 -3 -12 6 -10 7 2 12 -2 11 -8 -1 -7 7 -10 20
-8 12 2 16 2 10 -2 -9 -4 -10 -11 -3 -24 8 -15 6 -18 -8 -15 -9 1 -16 8 -14
16 2 9 0 10 -11 1 -8 -7 -17 -9 -20 -5 -4 3 -7 1 -7 -5 0 -7 8 -12 18 -12 14
0 15 -2 2 -10 -8 -5 -11 -10 -6 -10 6 0 1 -7 -10 -15 -18 -15 -18 -15 0 -8 13
4 17 3 12 -5 -12 -20 -33 -13 -38 13 -3 14 -2 28 2 30 12 8 5 50 -8 47 -7 -1
-12 3 -12 9 0 8 -5 7 -15 -1 -9 -7 -18 -10 -22 -6 -3 3 -1 6 6 6 7 0 9 5 5 12
-4 7 -3 8 4 4 7 -4 12 -2 12 4 0 6 6 8 13 4 6 -4 9 -4 5 1 -4 4 -2 15 5 23 8
11 8 14 0 9 -6 -4 -13 -1 -16 5 -3 10 -8 10 -18 -1 -9 -8 -9 -11 -2 -7 9 5 11
2 6 -9 -9 -26 -21 1 -16 40 2 21 -2 35 -10 38 -11 4 -14 -4 -13 -31 1 -21 5
-43 10 -51 6 -10 5 -12 -2 -7 -8 5 -12 -1 -12 -14 0 -12 -6 -28 -14 -36 -23
-22 -31 -16 -10 7 19 22 19 22 -4 10 -30 -16 -35 -11 -38 40 -4 60 -14 61 -11
0 2 -40 -1 -50 -12 -46 -10 4 -11 2 -4 -7 14 -17 10 -71 -4 -75 -7 -3 -9 -12
-6 -21 4 -14 3 -14 -5 -2 -6 8 -8 18 -5 24 3 5 1 6 -5 2 -7 -4 -12 -3 -12 3 0
5 8 15 18 20 9 6 12 11 7 11 -6 0 -16 -5 -23 -12 -9 -9 -12 -9 -12 2 0 7 -2
11 -5 8 -3 -3 2 -21 10 -41 11 -26 12 -38 3 -43 -6 -4 -8 -3 -4 4 3 6 2 13 -4
17 -6 3 -10 -4 -11 -17 -1 -23 -1 -23 -8 2 -5 14 -3 31 3 39 9 12 8 13 -3 6
-11 -6 -13 -4 -8 9 4 11 3 15 -4 11 -6 -4 -8 -14 -5 -22 4 -9 1 -13 -6 -11 -9
3 -13 27 -14 68 0 46 -5 65 -15 68 -11 3 -11 2 -1 -6 10 -7 10 -11 -2 -21 -8
-7 -13 -20 -11 -29 2 -9 4 -21 5 -27 5 -20 0 -32 -14 -32 -8 0 -11 7 -9 18 3
9 0 20 -6 23 -6 4 -11 23 -11 42 0 25 -4 33 -12 28 -7 -4 -10 -3 -5 1 4 5 0
17 -10 27 -9 10 -13 18 -8 18 4 0 14 -8 21 -17 11 -16 13 -14 12 14 -1 18 -5
33 -10 33 -4 0 -8 -4 -8 -10 0 -5 -5 -10 -11 -10 -6 0 -9 6 -6 13 3 8 -1 14
-9 14 -9 0 -10 -5 -5 -15 11 -20 2 -53 -13 -46 -6 3 -3 -1 7 -9 16 -14 16 -15
-5 -21 -14 -5 -18 -9 -10 -13 18 -7 15 -26 -4 -19 -8 3 -13 2 -9 -3 3 -5 -1
-12 -7 -15 -7 -3 -6 -4 4 -3 9 1 16 -2 15 -8 -1 -5 -6 -9 -11 -7 -5 2 -4 -4 4
-12 13 -16 2 -22 -15 -8 -6 4 -7 3 -3 -2 21 -26 -16 -37 -41 -13 -11 10 -13
10 -7 0 9 -16 1 -16 -27 -2 -20 9 -20 9 -4 -4 23 -19 21 -26 -5 -20 -18 4 -20
2 -8 -6 8 -5 11 -13 7 -17 -3 -4 -13 -1 -21 5 -8 7 -21 9 -27 5 -9 -5 -10 -2
-6 9 4 12 1 17 -10 17 -12 0 -13 3 -4 13 8 10 7 14 -4 14 -8 0 -12 -4 -9 -9 3
-4 0 -8 -7 -8 -8 0 -7 -5 2 -17 13 -15 12 -15 -7 -5 -14 7 -24 8 -31 1 -6 -6
-9 5 -9 30 0 22 3 38 7 35 13 -8 3 26 -11 39 -12 10 -12 9 -2 -4 10 -13 10
-18 -2 -22 -9 -4 -12 -16 -10 -36 2 -17 -1 -31 -7 -31 -6 0 -7 -5 -4 -10 3 -6
-1 -10 -10 -10 -9 0 -13 5 -10 10 4 6 1 9 -6 8 -6 -2 -14 3 -17 11 -3 9 0 11
9 6 8 -5 3 4 -10 18 -23 25 -23 27 -5 28 15 0 14 2 -6 10 l-25 10 24 20 c20
17 41 23 63 21 3 -1 12 5 18 13 7 8 19 15 27 15 8 0 11 4 8 10 -3 5 6 12 20
16 14 3 24 9 21 11 -3 3 1 12 9 19 16 16 29 19 20 4 -3 -6 1 -7 10 -4 14 6 14
8 -2 19 -17 13 -17 14 -1 20 10 4 16 11 13 15 -3 4 3 14 12 21 14 12 16 12 8
-1 -8 -13 -6 -13 8 -1 17 13 14 36 -4 26 -5 -4 -9 -1 -9 5 0 7 8 9 23 4 12 -3
19 -3 15 1 -4 4 -3 16 2 26 8 13 6 20 -7 28 -17 10 -17 10 2 11 15 0 16 3 7
12 -19 19 -37 -6 -41 -55 -1 -5 -10 -5 -21 -2 -12 4 -20 2 -20 -5 0 -6 -4 -8
-10 -5 -5 3 -10 2 -10 -4 0 -15 18 -23 25 -11 3 5 10 10 16 10 5 0 0 -9 -11
-20 -23 -23 -31 -25 -28 -8 3 11 -9 13 -43 9 -5 0 -7 -5 -4 -11 4 -6 -1 -7
-11 -3 -13 5 -15 3 -9 -7 5 -9 4 -11 -3 -6 -7 4 -12 2 -12 -3 0 -6 -5 -11 -11
-11 -8 0 -8 4 -1 13 16 19 11 53 -9 53 -9 0 -15 -6 -12 -13 3 -7 9 -10 14 -7
5 3 9 1 9 -4 0 -6 -6 -12 -14 -15 -20 -8 -28 43 -10 60 8 8 14 10 14 4 0 -6 5
-11 10 -11 7 0 7 6 0 19 -13 25 2 36 29 21 17 -9 19 -7 16 11 -3 12 -7 24 -11
28 -4 3 -4 -2 -1 -11 4 -10 3 -18 -2 -18 -18 0 -20 15 -4 32 9 10 13 18 9 18
-4 0 0 7 9 16 13 14 14 19 3 25 -10 7 -10 9 2 9 12 0 15 13 15 57 0 32 -4 62
-10 66 -6 5 -3 7 7 3 20 -6 34 9 18 19 -6 4 -8 11 -4 16 3 5 10 7 15 3 5 -3 6
-10 3 -16 -4 -6 -2 -8 4 -4 6 3 13 2 17 -4 3 -5 -1 -10 -9 -10 -9 0 -16 -2
-16 -5 0 -13 60 -66 68 -61 6 3 12 -1 15 -9 4 -9 1 -12 -9 -8 -7 3 -14 0 -14
-6 0 -6 4 -11 8 -11 8 0 12 -14 13 -52 0 -10 4 -18 8 -18 15 0 20 13 11 31 -7
12 -6 19 3 22 9 4 9 6 -1 6 -7 1 -10 6 -7 11 7 12 -34 90 -48 90 -5 0 -3 -8 4
-17 13 -16 12 -17 -4 -4 -10 8 -16 20 -13 27 3 7 -2 18 -9 24 -8 7 -12 16 -9
21 3 5 0 9 -6 9 -6 0 -3 12 7 27 10 15 13 24 7 20 -7 -4 -11 4 -11 21 -1 15
-4 41 -7 57 -4 17 -7 38 -7 47 0 10 -3 17 -7 15 -4 -1 -8 2 -9 7 -1 5 -12 14
-24 20 -24 12 -37 36 -20 36 6 0 10 -3 9 -7 -2 -5 0 -9 5 -10 4 -2 6 -1 5 0
-2 2 3 11 10 20 12 14 11 16 -5 12 -10 -2 -26 -6 -35 -10 -11 -4 -18 -3 -18 4
0 6 -6 11 -13 11 -8 0 -14 7 -14 15 0 8 4 15 9 15 4 0 8 5 8 11 0 5 -4 8 -9 5
-5 -4 -8 2 -6 11 1 10 7 17 13 16 6 -1 13 5 16 13 5 12 2 15 -11 10 -15 -6
-16 -5 -5 5 16 17 16 34 -1 20 -10 -8 -14 -7 -14 4 0 7 5 13 11 12 6 -1 10 3
9 8 -2 14 35 17 42 4 4 -5 11 -6 17 -3 7 4 8 2 4 -4 -9 -15 24 -52 40 -45 9 3
14 -2 14 -13 1 -13 5 -10 15 11 7 17 14 26 14 22 1 -4 10 -3 21 3 16 8 18 8
14 -4 -3 -9 -9 -15 -12 -14 -20 2 -29 -4 -29 -18 0 -14 2 -14 14 2 10 13 13
14 13 3 0 -8 3 -10 8 -4 4 6 14 11 22 13 22 5 41 23 34 34 -3 5 -1 14 4 21 12
15 37 98 33 112 -8 28 -7 41 3 47 7 5 7 8 -3 8 -10 0 -11 3 -2 14 8 10 9 16 1
21 -14 9 -29 -34 -25 -74 1 -18 -3 -45 -11 -60 -13 -25 -14 -25 -14 -3 0 12 4
22 9 22 5 0 8 13 7 29 0 16 -4 27 -7 25 -8 -5 -22 -64 -20 -86 1 -9 -3 -20
-10 -24 -7 -4 -9 -3 -6 3 4 6 -1 17 -11 24 -15 12 -16 12 -5 -1 6 -9 9 -20 5
-26 -9 -14 -42 -26 -42 -15 0 5 -7 12 -16 15 -8 3 -12 2 -9 -4 9 -14 -8 -13
-23 2 -9 9 -11 7 -8 -9 4 -16 0 -20 -15 -16 -10 3 -16 9 -13 14 3 5 0 9 -6 9
-6 0 -8 5 -5 10 3 6 1 10 -4 10 -6 0 -11 -6 -11 -12 0 -9 -4 -8 -10 2 -9 13
-14 7 -11 -12 0 -4 -6 -5 -14 -2 -8 4 -15 1 -15 -6 0 -7 -6 -10 -14 -7 -8 3
-17 3 -19 -1 -2 -4 -3 -2 -1 4 1 6 -2 16 -8 22 -7 7 -6 17 2 32 10 18 10 21
-2 14 -19 -12 -39 -14 -32 -3 3 5 9 7 14 4 4 -3 11 2 14 11 8 21 8 26 -3 20
-20 -13 -19 25 1 44 17 15 24 17 35 8 8 -6 13 -7 12 -2 -4 22 2 34 17 34 11 0
15 6 11 20 -3 11 -1 18 3 15 5 -3 11 -1 15 5 4 6 10 8 14 6 4 -3 8 1 8 9 0 8
-3 12 -7 10 -4 -2 -7 2 -7 10 0 8 5 13 10 12 5 -1 12 4 15 12 3 10 0 11 -9 5
-11 -6 -12 -5 -3 7 5 8 10 21 9 29 0 8 4 18 10 22 6 5 6 8 -2 8 -7 0 -13 5
-13 11 0 5 5 7 11 3 6 -3 3 8 -6 26 -14 27 -14 34 -3 41 10 7 9 11 -6 22 -13
10 -16 16 -7 21 17 11 3 26 -17 19 -14 -5 -14 -3 2 9 22 17 14 40 -12 31 -11
-3 -9 1 6 11 24 19 21 39 -5 29 -10 -4 -14 -2 -9 5 3 6 2 13 -3 17 -6 3 -8 12
-5 20 4 8 11 12 17 8 5 -3 7 -1 3 5 -3 5 0 13 6 15 10 4 10 6 1 6 -7 1 -13 6
-13 12 0 6 7 8 16 5 14 -5 15 -4 4 9 -17 20 -30 19 -30 -4 0 -10 -9 -21 -19
-24 -22 -5 -23 19 0 35 11 8 10 9 -6 5 -16 -3 -20 2 -22 25 -1 16 -7 36 -12
46 -8 13 -9 8 -4 -18 6 -31 5 -33 -9 -22 -17 14 -32 56 -17 46 5 -3 9 -1 9 4
0 6 -8 13 -17 17 -17 6 -17 7 0 20 18 13 17 14 -2 20 -12 3 -21 15 -21 25 0
10 -5 22 -11 26 -8 4 -9 -1 -4 -16 5 -17 4 -21 -6 -16 -8 4 -5 0 5 -8 11 -9
17 -19 13 -22 -4 -4 -13 -2 -20 4 -8 7 -17 9 -20 6 -4 -4 -4 4 -2 16 5 28 -11
50 -36 50 -11 0 -19 5 -19 11 0 5 5 7 12 3 7 -4 8 -3 4 5 -4 6 -12 9 -17 6 -5
-4 -9 1 -9 9 0 10 -6 13 -15 10 -14 -6 -19 5 -16 32 0 5 -8 20 -20 33 -12 12
-22 30 -24 39 -6 28 -6 28 -16 7 l-9 -20 3 20 c1 11 -4 26 -13 33 -13 11 -13
12 0 10 8 -2 18 -7 21 -11 3 -5 9 1 12 12 3 12 1 21 -5 21 -5 0 -6 5 -2 12 4
6 3 8 -4 4 -6 -3 -13 -2 -17 4 -3 5 -1 10 6 10 7 0 9 3 6 6 -4 4 -17 0 -30 -9
-13 -9 -29 -12 -36 -7 -9 5 -10 10 -2 14 6 4 11 2 11 -4 0 -6 5 -8 10 -5 6 4
7 11 4 17 -4 7 -2 8 4 4 7 -4 12 -2 12 3 0 6 -7 11 -16 11 -14 0 -15 2 -3 17
13 15 12 15 -8 3 -12 -8 -20 -17 -17 -21 2 -4 -1 -11 -7 -15 -8 -4 -9 -3 -5 4
7 11 -6 17 -27 13 -5 -1 -6 3 -2 8 3 6 12 8 19 5 8 -3 17 -1 21 5 4 7 0 8 -11
4 -13 -5 -15 -3 -9 7 5 9 4 11 -3 6 -7 -4 -20 -2 -29 4 -16 10 -16 11 2 5 11
-3 16 -3 12 1 -4 4 1 13 11 21 15 11 13 12 -11 1 -21 -9 -30 -9 -40 1 -9 10
-8 11 7 5 15 -6 17 -4 11 6 -12 19 -15 61 -4 54 5 -3 9 -1 9 5 0 6 6 8 14 5 8
-3 17 1 22 8 4 7 4 10 0 6 -11 -10 -56 41 -56 64 0 12 4 16 12 12 7 -4 8 -3 4
4 -4 7 -1 12 6 12 10 0 10 2 -1 9 -7 5 -11 14 -7 20 5 7 1 8 -11 4 -16 -6 -16
-5 -4 10 11 14 11 17 0 17 -8 0 -6 5 5 13 15 11 16 16 5 28 -18 18 -20 49 -4
43 17 -7 29 13 14 22 -8 5 -9 3 -4 -7 5 -8 4 -11 -1 -6 -10 9 -13 56 -4 58 42
6 49 5 39 -8 -6 -7 -8 -13 -3 -13 5 0 2 -5 -6 -11 -13 -9 -13 -10 0 -6 8 2 14
10 12 17 -2 8 3 10 12 7 17 -7 39 23 28 39 -4 5 -25 10 -46 11 -22 0 -33 -2
-26 -7 7 -5 8 -10 2 -14 -5 -3 -15 1 -22 9 -10 12 -10 15 0 15 8 0 9 4 3 13
-15 18 -24 49 -14 42 5 -3 12 -1 15 4 8 12 -30 21 -42 9 -5 -5 -9 6 -9 31 0
22 3 38 8 36 4 -3 2 6 -4 20 -14 28 -24 30 -50 11 -14 -11 -15 -15 -5 -19 7
-3 3 -6 -10 -6 -15 -1 -21 -5 -16 -13 4 -6 3 -8 -4 -4 -6 3 -9 18 -6 32 3 15
1 23 -5 20 -5 -4 -13 -1 -17 5 -4 8 -3 9 4 5 7 -4 12 -3 12 3 0 5 -9 13 -20
16 -11 4 -18 10 -15 14 2 5 -5 8 -16 7 -29 -1 -53 -43 -25 -43 8 0 11 8 8 19
-2 10 1 18 7 18 6 0 10 -6 9 -12 -2 -7 3 -12 10 -10 6 1 12 -2 12 -8 0 -5 -7
-10 -15 -10 -8 0 -15 -6 -15 -12 0 -9 -4 -8 -10 2 -9 13 -10 13 -10 0 0 -9 -3
-11 -8 -4 -4 6 -15 13 -24 17 -17 6 -19 30 -3 44 4 4 5 2 1 -4 -10 -17 9 -16
23 1 9 11 6 13 -13 11 -28 -3 -99 53 -95 76 5 32 -22 62 -36 39z m92 -132 c1
-11 -5 -18 -15 -17 -11 0 -12 2 -4 6 9 3 6 13 -10 36 l-22 31 25 -19 c14 -10
26 -27 26 -37z m74 -345 c22 -25 22 -26 2 -9 -24 20 -32 10 -10 -13 9 -11 9
-12 0 -7 -9 5 -12 -1 -9 -23 2 -17 0 -28 -4 -26 -10 6 -73 -45 -65 -53 3 -3
17 5 33 19 l27 23 -27 -28 c-24 -26 -29 -28 -44 -15 -9 8 -19 13 -21 12 -9 -7
-23 -2 -18 7 3 5 13 6 23 3 14 -5 15 -4 6 8 -9 11 -6 19 14 39 15 14 29 25 31
25 3 0 6 8 6 17 1 10 5 21 10 25 4 5 6 1 3 -8 -4 -9 -1 -16 6 -16 8 0 11 9 8
24 -6 30 -1 29 29 -4z m214 -113 c3 -5 1 -10 -4 -10 -6 0 -11 5 -11 10 0 6 2
10 4 10 3 0 8 -4 11 -10z m-425 -90 c-11 -7 -11 -10 -2 -10 7 0 10 -4 7 -10
-15 -24 -26 -5 -16 28 1 1 7 2 14 2 8 0 7 -4 -3 -10z m-48 -21 c-20 -23 -23
-24 -15 -2 5 12 3 14 -7 8 -8 -5 -11 -4 -7 1 3 5 15 10 26 11 18 2 19 1 3 -18z
m28 -23 c0 -2 -7 -7 -16 -10 -8 -3 -12 -2 -9 4 6 10 25 14 25 6z m-32 -41 c-3
-3 -9 2 -12 12 -6 14 -5 15 5 6 7 -7 10 -15 7 -18z m-18 -14 c0 -14 -5 -18
-20 -14 -21 5 -25 15 -13 26 13 14 33 6 33 -12z m36 -13 c4 -7 3 -8 -4 -4 -7
4 -12 3 -12 -3 0 -5 -3 -17 -6 -25 -4 -11 -2 -15 7 -13 8 2 10 2 6 -1 -4 -2
-2 -11 5 -20 12 -15 11 -16 -4 -3 -11 8 -18 9 -18 3 0 -6 5 -14 11 -18 8 -4 7
-9 -2 -14 -7 -5 -14 -18 -16 -31 -2 -12 -7 -27 -12 -33 -13 -17 -11 -107 3
-99 7 4 6 1 -2 -9 -7 -9 -22 -13 -37 -10 -20 3 -24 1 -19 -12 3 -9 11 -13 18
-9 6 4 6 0 -2 -9 -10 -13 -10 -17 0 -21 9 -4 9 -6 1 -6 -14 -1 -26 16 -30 43
-2 11 -10 28 -19 37 -10 11 -12 19 -4 24 5 3 8 11 4 16 -3 5 -9 7 -14 4 -4 -3
-7 3 -5 12 1 11 9 17 21 15 11 -2 15 0 8 5 -5 4 -10 22 -9 39 0 22 -3 30 -12
27 -7 -3 -13 0 -13 6 0 6 11 11 24 11 14 0 27 4 31 9 3 6 -4 8 -15 6 -16 -3
-20 0 -18 13 2 9 11 17 20 17 9 0 20 4 25 8 4 5 3 7 -4 5 -6 -1 -10 2 -10 7 1
6 8 8 16 7 13 -3 13 -1 1 15 -14 17 -14 17 6 0 20 -17 22 -17 45 2 29 24 26
24 35 9z m598 -127 c-4 -3 -9 0 -11 7 -3 6 -10 9 -15 6 -7 -4 -8 -2 -4 5 6 9
11 9 22 0 8 -6 12 -15 8 -18z m-738 -26 c1 -7 -4 -16 -12 -19 -11 -4 -12 -1
-5 13 6 10 8 21 6 25 -3 3 -2 4 2 1 4 -3 8 -12 9 -20z m719 -15 c3 -5 1 -10
-4 -10 -6 0 -11 5 -11 10 0 6 2 10 4 10 3 0 8 -4 11 -10z m175 -194 c0 -3 -4
-8 -10 -11 -5 -3 -10 -1 -10 4 0 6 5 11 10 11 6 0 10 -2 10 -4z m180 -219 c0
-2 -9 -12 -20 -22 -24 -21 -27 -14 -4 9 15 15 24 20 24 13z m-934 -172 c-11
-8 -25 -15 -30 -14 -6 0 -5 3 2 6 6 2 10 9 6 14 -3 5 5 9 18 9 22 -1 22 -1 4
-15z m948 -23 c3 -5 -1 -9 -9 -9 -8 0 -12 4 -9 9 3 4 7 8 9 8 2 0 6 -4 9 -8z
m-848 -307 c10 -8 14 -15 7 -15 -6 0 -18 -3 -27 -6 -11 -4 -14 0 -13 15 2 25
7 26 33 6z m724 -39 c0 -2 -8 -10 -17 -17 -16 -13 -17 -12 -4 4 13 16 21 21
21 13z m-903 -92 c-3 -4 -2 -15 3 -24 8 -15 6 -17 -10 -13 -16 4 -18 9 -9 24
5 10 13 19 16 19 3 0 3 -3 0 -6z m1138 -34 c3 -5 1 -10 -4 -10 -6 0 -11 5 -11
10 0 6 2 10 4 10 3 0 8 -4 11 -10z m95 -26 c0 -2 -10 -9 -22 -15 -20 -11 -21
-10 -11 3 7 8 10 18 6 22 -4 4 0 4 10 0 9 -3 17 -8 17 -10z m-241 -166 c-11
-7 -9 -8 5 -4 13 4 26 -2 42 -21 22 -26 25 -33 23 -49 0 -4 5 -11 13 -15 8 -6
9 -12 3 -16 -6 -5 -12 -21 -13 -38 -6 -46 -17 -49 -45 -12 -20 27 -23 37 -14
46 7 7 8 12 2 11 -22 -5 -27 1 -14 17 12 15 12 16 -4 10 -11 -4 -16 -3 -12 3
3 6 -2 10 -12 11 -10 0 -13 3 -6 6 10 3 9 11 -2 33 -14 27 -14 29 5 25 11 -2
20 1 20 6 0 6 5 7 11 3 8 -4 7 -9 -2 -16z m-1121 -73 c-3 -3 -9 2 -12 12 -6
14 -5 15 5 6 7 -7 10 -15 7 -18z m-23 -15 c-3 -5 -12 -10 -18 -10 -7 0 -6 4 3
10 19 12 23 12 15 0z m35 -4 c0 -3 -4 -8 -10 -11 -5 -3 -10 -1 -10 4 0 6 5 11
10 11 6 0 10 -2 10 -4z m1217 -73 c-4 -3 -2 -12 5 -20 6 -7 8 -16 4 -20 -3 -3
-6 -1 -6 6 0 7 -4 10 -9 7 -5 -4 -8 2 -6 11 5 24 4 23 12 23 3 0 3 -3 0 -7z
m-1267 -21 c0 -5 -7 -9 -15 -9 -8 0 -12 4 -9 9 3 4 9 8 15 8 5 0 9 -4 9 -8z
m1340 -142 c0 -5 -5 -10 -11 -10 -5 0 -7 5 -4 10 3 6 8 10 11 10 2 0 4 -4 4
-10z m22 -218 c-7 -2 -9 -9 -5 -15 3 -7 2 -8 -2 -4 -16 14 -14 36 3 29 10 -4
12 -7 4 -10z m-219 -72 c3 -11 0 -18 -7 -17 -15 3 -26 19 -20 29 9 14 22 9 27
-12z m-973 -70 c0 -5 -4 -10 -10 -10 -5 0 -10 5 -10 10 0 6 5 10 10 10 6 0 10
-4 10 -10z m-75 -40 c3 -5 2 -10 -4 -10 -5 0 -13 5 -16 10 -3 6 -2 10 4 10 5
0 13 -4 16 -10z m-245 -9 c0 -14 -29 -21 -36 -9 -4 6 -3 8 4 4 6 -3 13 -2 17
4 8 12 15 13 15 1z m-326 -62 c-3 -5 -10 -7 -15 -3 -5 3 -7 10 -3 15 3 5 10 7
15 3 5 -3 7 -10 3 -15z m306 1 c17 -17 18 -20 3 -20 -14 0 -14 -2 3 -21 19
-22 19 -22 -3 -8 -16 10 -21 19 -16 34 5 17 4 18 -9 8 -18 -16 -32 -5 -17 14
15 17 15 17 39 -7z m130 10 c0 -5 -4 -10 -10 -10 -5 0 -10 5 -10 10 0 6 5 10
10 10 6 0 10 -4 10 -10z m-575 -28 c-3 -3 -11 0 -18 7 -9 10 -8 11 6 5 10 -3
15 -9 12 -12z m2437 -27 c-8 -16 -9 -16 -15 -1 -4 10 -3 15 3 11 6 -3 10 -1
10 6 0 7 3 10 6 6 3 -3 2 -13 -4 -22z m25 5 c-1 -11 -5 -20 -9 -20 -10 0 -10
4 -2 24 8 22 13 20 11 -4z m-750 3 c-4 -3 0 -14 8 -23 14 -15 14 -18 0 -30 -8
-7 -15 -17 -15 -22 0 -7 5 -6 13 1 14 11 27 5 27 -11 0 -9 -48 -3 -58 7 -3 3
3 12 14 20 10 8 14 15 9 15 -6 0 -16 -5 -22 -11 -8 -8 -13 -8 -17 0 -4 6 -2
11 4 11 7 0 9 7 6 16 -6 15 -4 15 11 3 11 -9 14 -10 9 -1 -7 12 0 32 11 32 4
0 3 -3 0 -7z m-967 -13 c0 -5 -4 -10 -10 -10 -5 0 -10 5 -10 10 0 6 5 10 10
10 6 0 10 -4 10 -10z m-628 -32 c-8 -8 -9 -4 -5 13 4 13 8 18 11 10 2 -7 -1
-18 -6 -23z m323 23 c3 -5 2 -12 -3 -15 -5 -3 -9 1 -9 9 0 17 3 19 12 6z
m1925 -12 c0 -5 -4 -9 -10 -9 -5 0 -10 7 -10 16 0 8 5 12 10 9 6 -3 10 -10 10
-16z m-2743 -51 c-3 -8 -6 -5 -6 6 -1 11 2 17 5 13 3 -3 4 -12 1 -19z m2409
-5 c-2 -3 -13 0 -24 6 -11 6 -23 7 -27 3 -5 -4 -5 -2 -1 5 5 9 13 10 31 1 14
-6 23 -13 21 -15z m562 -18 c-3 -3 -9 2 -12 12 -6 14 -5 15 5 6 7 -7 10 -15 7
-18z m-2964 -7 c-3 -4 -9 -8 -15 -8 -5 0 -9 4 -9 8 0 5 7 9 15 9 8 0 12 -4 9
-9z m3042 -36 c2 -11 -1 -24 -6 -27 -6 -4 -7 1 -3 11 5 13 3 15 -8 9 -11 -7
-11 -5 1 10 14 17 13 18 -3 12 -11 -4 -16 -3 -12 4 10 16 28 5 31 -19z m-3046
-2 c0 -5 -5 -10 -11 -10 -5 0 -7 5 -4 10 3 6 8 10 11 10 2 0 4 -4 4 -10z
m2162 -35 c83 -5 100 -8 185 -28 34 -8 64 -12 67 -9 3 3 6 -3 6 -14 0 -11 3
-15 8 -8 5 8 16 7 37 -2 17 -7 24 -13 17 -14 -20 0 5 -40 26 -40 10 0 23 -5
30 -12 8 -8 12 -8 12 -1 0 13 70 -21 82 -39 6 -10 8 -9 8 2 0 13 1 13 10 0 5
-8 12 -11 16 -7 4 3 1 13 -6 22 -7 8 -10 15 -6 15 3 0 15 -14 25 -31 11 -18
22 -26 25 -20 4 6 2 11 -3 11 -6 0 -11 5 -11 11 0 8 5 8 15 -1 8 -7 15 -23 15
-37 0 -13 4 -22 8 -19 4 2 7 -10 7 -28 0 -22 -4 -32 -12 -29 -6 3 -10 13 -8
24 2 10 -1 19 -7 19 -5 0 -8 -7 -4 -15 3 -8 1 -15 -3 -15 -5 0 -7 -10 -3 -22
4 -16 2 -19 -9 -13 -12 7 -12 6 -1 -8 10 -12 11 -21 3 -34 -6 -10 -11 -12 -11
-5 0 6 -5 12 -10 12 -12 0 -9 -22 5 -33 6 -5 0 -7 -13 -4 -20 5 -22 3 -10 -11
7 -9 8 -13 2 -9 -7 4 -14 1 -17 -7 -3 -7 -20 -16 -38 -20 -18 -3 -39 -12 -47
-18 -14 -12 -27 -16 -69 -20 -13 -1 -23 -6 -23 -11 0 -5 -7 -7 -15 -3 -8 3
-28 0 -43 -6 -15 -6 -34 -12 -42 -14 -39 -7 -50 -11 -56 -17 -4 -4 -16 -7 -26
-7 -10 0 -18 -4 -18 -9 0 -10 -70 -9 -87 2 -6 4 -15 3 -18 -3 -5 -8 -11 -7
-21 1 -11 9 -14 8 -14 -2 0 -10 -3 -10 -12 -1 -15 15 -28 15 -28 1 0 -5 6 -7
13 -4 6 4 3 -1 -7 -9 -16 -13 -22 -13 -28 -3 -6 9 -10 9 -17 -2 -5 -7 -14 -10
-20 -7 -6 4 -11 3 -11 -1 0 -5 -10 -9 -22 -10 -29 -1 -98 -13 -118 -20 -23 -7
-192 -16 -305 -16 -194 1 -405 24 -405 45 0 6 -7 7 -16 4 -8 -3 -12 -2 -9 4 3
6 2 10 -4 10 -5 0 -13 -5 -16 -10 -5 -8 -12 -7 -23 2 -13 11 -14 11 -8 0 7
-12 4 -12 -15 -1 -20 11 -21 14 -6 17 9 2 17 11 17 20 0 15 -2 15 -10 2 -7
-10 -12 -12 -17 -4 -5 6 -16 11 -25 11 -13 0 -16 -7 -11 -29 5 -23 2 -28 -14
-28 -11 0 -23 3 -27 7 -4 4 -20 8 -35 8 -16 0 -35 6 -43 12 -8 7 -19 8 -27 4
-7 -5 -34 0 -62 10 -27 11 -49 16 -49 13 0 -3 -14 3 -30 13 -17 9 -30 20 -30
24 0 4 -12 7 -27 7 -46 0 -72 6 -67 14 3 4 -2 8 -10 8 -8 0 -18 9 -21 20 -7
21 -25 28 -25 10 0 -5 5 -10 10 -10 6 0 10 -7 10 -16 0 -11 -7 -7 -24 11 -14
15 -23 34 -19 43 3 10 1 13 -4 7 -4 -5 -16 -11 -26 -13 -17 -3 -17 -2 -1 23
13 20 14 25 3 23 -9 -2 -14 8 -15 30 -1 17 2 32 7 32 5 0 9 5 9 11 0 5 -4 8
-9 5 -5 -3 -11 1 -15 9 -3 8 -2 15 2 15 4 0 18 10 32 21 14 11 19 18 13 14 -9
-4 -11 -1 -7 10 4 9 8 14 11 11 2 -2 15 7 28 20 26 26 45 31 45 12 0 -7 7 -2
16 10 14 21 52 33 39 12 -3 -6 1 -7 9 -4 9 3 14 10 11 14 -3 4 2 11 11 14 10
4 13 2 8 -6 -5 -7 -3 -8 7 -2 8 5 22 9 32 9 10 0 22 7 27 15 5 8 10 12 10 7 0
-4 15 -1 32 6 18 8 39 12 46 9 7 -2 20 2 29 10 12 9 15 9 9 1 -4 -7 -2 -13 3
-13 6 0 11 5 11 11 0 6 8 9 18 7 11 -3 19 0 19 8 0 7 -5 10 -11 7 -6 -4 -7 -2
-3 3 8 8 45 13 109 15 15 0 38 -7 50 -15 28 -20 43 -21 26 -2 -7 8 -17 11 -22
8 -5 -3 -6 0 -2 6 5 9 14 7 31 -5 27 -21 56 -61 33 -47 -7 5 -22 10 -33 11
l-20 3 20 -12 c23 -13 51 -40 48 -45 -8 -9 -2 -23 7 -18 6 3 7 -1 3 -10 -3
-10 -8 -13 -12 -6 -4 6 -12 7 -21 1 -10 -6 -11 -10 -3 -10 7 0 17 -9 23 -20 6
-11 7 -20 3 -19 -24 4 -43 -3 -43 -16 0 -8 5 -15 11 -15 5 0 8 4 5 8 -3 5 1 9
8 9 11 0 14 -14 7 -34 -1 -1 -12 2 -26 7 -17 6 -25 6 -25 -1 0 -5 -8 -9 -17
-7 -14 2 -18 -3 -16 -25 1 -17 -4 -30 -12 -34 -8 -3 -15 -12 -15 -20 0 -10 -6
-13 -16 -9 -8 3 -12 2 -9 -4 3 -6 1 -10 -6 -10 -7 0 -10 -3 -7 -6 4 -3 16 -1
27 6 19 9 21 8 17 -12 -2 -13 -10 -22 -19 -22 -9 1 -13 -4 -10 -12 4 -10 9
-11 18 -4 6 5 16 6 20 2 5 -4 5 -1 0 7 -6 11 -2 13 21 8 27 -6 27 -6 7 5 -13
6 -23 17 -23 24 0 25 20 25 45 0 14 -15 31 -26 38 -26 7 0 5 6 -5 14 -10 7
-15 16 -11 19 3 4 13 1 22 -5 13 -10 14 -10 4 2 -18 19 -16 26 7 27 19 2 24
-7 20 -36 -1 -9 4 -12 14 -8 9 4 15 1 13 -5 -1 -7 4 -13 11 -14 6 -1 16 -2 21
-3 5 0 11 -10 14 -21 3 -11 9 -20 14 -19 19 3 34 -2 29 -10 -4 -6 5 -6 21 -2
16 4 40 4 56 0 17 -5 27 -4 27 3 0 6 9 3 20 -7 12 -11 20 -13 20 -6 0 7 4 10
9 7 5 -3 14 1 21 9 8 9 17 12 24 7 10 -8 80 -14 181 -14 22 0 46 -5 53 -11 11
-9 13 -7 11 10 -2 13 35 27 39 15 2 -8 8 -7 18 2 8 8 23 13 34 11 12 -2 20 2
20 10 0 8 6 12 14 9 7 -3 16 3 20 13 6 15 8 15 16 3 8 -12 10 -11 10 5 0 17 2
17 10 5 8 -12 10 -11 10 6 0 16 7 21 41 23 26 1 38 -2 34 -9 -3 -5 -2 -10 3
-10 6 0 13 7 16 16 3 8 2 12 -3 9 -5 -3 -12 -1 -16 5 -3 5 3 10 14 10 12 0 22
-4 22 -10 1 -5 2 -14 3 -19 0 -5 5 -13 10 -18 5 -4 6 -3 2 4 -3 6 -2 14 4 18
5 3 10 12 10 18 0 7 -4 6 -10 -3 -6 -9 -10 -11 -10 -3 0 7 -12 19 -26 26 -22
12 -24 15 -10 20 9 4 15 3 12 -2 -3 -5 3 -11 15 -14 17 -5 18 -3 7 11 -11 13
-11 15 4 9 10 -3 20 -1 24 5 4 7 3 8 -4 4 -7 -4 -12 -2 -12 4 0 6 -6 10 -12 9
-30 -4 -35 3 -34 39 1 20 -3 40 -9 44 -6 5 -5 8 3 8 7 0 10 5 7 10 -3 6 -2 10
4 10 5 0 8 11 6 25 -1 14 2 25 6 25 5 0 9 5 9 11 0 5 -5 7 -11 3 -6 -3 -4 5 5
18 9 14 14 27 11 30 -3 3 1 8 10 12 11 4 14 2 9 -6 -4 -6 -3 -8 4 -4 6 3 9 15
7 26 -2 12 0 18 5 15 6 -3 43 -8 82 -10z m-2199 -91 c2 -15 1 -22 -4 -17 -12
12 -20 55 -10 48 5 -2 11 -16 14 -31z m3141 -9 c-4 -8 -11 -12 -16 -9 -6 4 -5
10 3 15 19 12 19 11 13 -6z m-3162 -96 c-14 -5 -14 -7 3 -17 11 -6 16 -11 10
-12 -21 0 -34 17 -29 37 5 17 9 19 19 10 10 -10 10 -13 -3 -18z m554 -4 c-1
-8 -5 -17 -8 -21 -5 -4 -4 16 1 34 3 9 9 -1 7 -13z m2678 2 c3 3 6 1 6 -6 0
-7 4 -10 9 -7 5 3 14 -1 21 -9 9 -10 9 -15 1 -15 -6 0 -11 5 -11 11 0 5 -4 8
-10 4 -5 -3 -6 -13 -3 -23 6 -16 6 -16 -10 0 -9 9 -17 23 -17 30 0 11 -2 11
-9 0 -6 -11 -10 -9 -14 7 -4 17 -2 19 13 11 9 -5 20 -6 24 -3z m-3134 -17 c0
-5 -2 -10 -4 -10 -3 0 -8 5 -11 10 -3 6 -1 10 4 10 6 0 11 -4 11 -10z m0 -30
c0 -5 -4 -10 -10 -10 -5 0 -10 5 -10 10 0 6 5 10 10 10 6 0 10 -4 10 -10z
m1086 -13 c5 -4 2 -5 -7 -2 -10 4 -15 -1 -16 -15 -2 -22 13 -28 20 -7 3 9 7 9
19 0 8 -7 17 -10 20 -7 3 3 9 0 14 -7 4 -8 3 -10 -4 -5 -7 4 -12 2 -12 -4 0
-6 -4 -9 -9 -5 -6 3 -14 -3 -20 -12 -9 -18 -26 -12 -26 10 0 5 -6 12 -14 15
-10 3 -12 0 -7 -14 4 -10 4 -15 0 -11 -4 4 -14 1 -22 -6 -13 -10 -14 -9 -7 3
4 8 15 23 23 33 8 9 11 17 5 17 -5 0 -10 6 -10 13 0 14 40 17 53 4z m1920 -31
c0 -19 -4 -37 -8 -41 -3 -3 -4 -21 -1 -38 3 -18 2 -29 -2 -25 -4 4 -14 1 -22
-7 -19 -19 -34 -19 -27 0 4 8 10 15 15 15 4 0 14 10 20 23 12 21 11 21 -6 7
-17 -14 -18 -13 -12 2 3 10 3 17 -1 15 -4 -1 -7 3 -7 8 0 6 3 9 8 8 4 -2 7 2
7 7 0 18 2 25 11 43 15 27 26 20 25 -17z m-2874 6 c-7 -2 -9 -9 -6 -14 4 -7 2
-8 -4 -4 -6 4 -9 13 -6 21 4 8 11 12 17 8 8 -5 7 -8 -1 -11z m8 -47 c0 -9 6
-12 15 -9 8 4 15 2 15 -4 0 -5 9 -12 20 -15 26 -7 17 -32 -13 -34 -21 -2 -21
-1 3 13 14 9 17 13 8 10 -10 -3 -18 -1 -18 4 0 6 -11 10 -24 10 -14 0 -28 5
-32 12 -5 7 -3 8 7 3 12 -8 12 -6 0 8 -12 15 -11 17 3 17 9 0 16 -7 16 -15z
m2782 -7 c-9 -9 -15 -9 -24 1 -11 10 -10 11 5 6 10 -5 17 -2 17 6 0 7 3 9 7 6
4 -4 1 -13 -5 -19z m3 -21 c10 13 14 13 20 3 6 -9 4 -11 -5 -5 -10 6 -12 4 -7
-7 7 -19 -20 -61 -34 -53 -17 11 -10 35 9 28 14 -5 14 -3 -3 14 -20 19 -20 19
-38 -1 -18 -21 -13 -3 6 22 8 11 13 10 25 -2 14 -13 17 -13 27 1z m-2445 -48
c0 -6 -4 -7 -10 -4 -5 3 -10 11 -10 16 0 6 5 7 10 4 6 -3 10 -11 10 -16z
m2399 -18 c-15 -5 -22 6 -14 19 6 9 10 9 16 -1 5 -8 4 -15 -2 -18z m425 -32
c-3 -5 -10 -7 -15 -3 -5 3 -7 10 -3 15 3 5 10 7 15 3 5 -3 7 -10 3 -15z
m-2296 -104 c-3 -3 -9 2 -12 12 -6 14 -5 15 5 6 7 -7 10 -15 7 -18z"/>
<path d="M2454 4302 c6 -10 -27 -36 -48 -37 -5 0 -10 -10 -11 -23 l-2 -22 21
22 c11 13 29 30 40 39 15 12 16 18 6 24 -8 5 -11 4 -6 -3z"/>
<path d="M2200 4000 c-9 -6 -10 -10 -3 -10 6 0 15 5 18 10 8 12 4 12 -15 0z"/>
<path d="M2197 3967 c3 -6 -3 -17 -13 -25 -18 -13 -18 -14 6 -7 22 7 23 6 11
-8 -7 -9 -18 -14 -25 -10 -6 3 -8 3 -4 -2 4 -4 2 -17 -4 -29 -14 -24 -20 -86
-9 -86 4 0 7 16 6 35 -2 19 1 35 6 35 5 0 9 7 9 15 0 8 5 14 12 13 7 -2 13 3
14 10 1 6 3 13 4 15 9 9 4 54 -7 54 -6 0 -9 -5 -6 -10z"/>
<path d="M2107 3829 c7 -7 15 -10 18 -7 3 3 -2 9 -12 12 -14 6 -15 5 -6 -5z"/>
<path d="M2146 3779 c2 -4 -1 -10 -6 -12 -6 -3 -5 -4 2 -3 7 2 22 -1 33 -6 19
-9 19 -8 2 5 -14 11 -15 16 -5 20 7 3 3 4 -9 4 -12 -1 -20 -4 -17 -8z"/>
<path d="M3130 2581 c0 -6 4 -13 10 -16 6 -3 7 1 4 9 -7 18 -14 21 -14 7z"/>
<path d="M3190 2496 c0 -2 8 -10 18 -17 15 -13 16 -12 3 4 -13 16 -21 21 -21
13z"/>
<path d="M3181 2454 c6 -7 16 -11 21 -8 11 7 3 17 -18 20 -12 2 -13 -1 -3 -12z"/>
<path d="M2092 1495 c4 -5 0 -14 -10 -21 -9 -7 -14 -16 -9 -20 4 -4 14 1 22
12 13 17 14 17 15 2 0 -10 5 -18 11 -18 5 0 7 6 3 13 -5 8 -2 7 10 -2 13 -11
14 -16 4 -22 -7 -5 -8 -9 -2 -9 35 0 22 35 -20 57 -17 8 -28 12 -24 8z"/>
<path d="M2060 1482 c0 -7 -7 -12 -15 -12 -8 0 -15 -4 -15 -9 0 -10 -26 -9
-36 2 -4 4 -13 2 -20 -3 -12 -11 -23 -14 -88 -24 -32 -5 -95 -19 -136 -31 -8
-2 -39 -13 -69 -24 -30 -11 -57 -18 -61 -16 -5 3 -10 -2 -13 -10 -5 -11 -1
-12 18 -5 14 5 25 8 25 6 0 -4 89 24 130 41 8 3 22 7 30 9 14 3 32 6 110 21
14 2 33 5 43 6 9 1 17 8 17 17 0 10 3 11 8 3 8 -13 29 -13 50 0 6 5 12 5 12 0
0 -4 5 0 11 10 6 10 8 21 5 24 -3 4 -6 1 -6 -5z"/>
<path d="M1574 1404 c-18 -14 -18 -15 4 -4 12 6 22 13 22 15 0 8 -5 6 -26 -11z"/>
<path d="M1566 1334 c-3 -8 -11 -12 -17 -8 -8 4 -9 3 -5 -4 5 -9 12 -8 26 1
21 12 26 27 11 27 -5 0 -12 -7 -15 -16z"/>
<path d="M3200 1325 c0 -8 5 -15 11 -15 5 0 7 -5 3 -12 -4 -6 -3 -8 4 -5 12 8
4 47 -9 47 -5 0 -9 -7 -9 -15z"/>
<path d="M3651 1314 c0 -11 3 -14 6 -6 3 7 2 16 -1 19 -3 4 -6 -2 -5 -13z"/>
<path d="M3215 1274 c-11 -8 -19 -20 -17 -25 3 -14 -16 -11 -21 4 -4 7 -6 6
-6 -5 -1 -9 7 -19 17 -21 14 -4 14 -6 -5 -12 -13 -4 -20 -12 -16 -18 4 -6 -1
-8 -14 -5 -13 3 -24 -1 -31 -13 -7 -11 -20 -16 -33 -14 -12 3 -19 2 -16 -1 3
-3 7 -5 9 -3 2 1 14 -3 27 -10 21 -12 23 -11 18 3 -3 8 -2 18 3 21 4 3 10 0
12 -5 2 -6 13 -2 26 10 14 13 22 16 22 8 0 -10 2 -10 9 1 5 7 8 27 7 43 -2 22
1 27 13 23 9 -3 12 -3 8 1 -4 4 -2 13 4 21 15 17 9 16 -16 -3z"/>
<path d="M3115 1250 c-4 -6 -12 -7 -18 -3 -7 4 -6 -1 2 -10 15 -19 24 -16 27
8 3 17 -2 19 -11 5z"/>
<path d="M1974 1205 c0 -14 5 -25 10 -25 4 0 6 9 3 20 -3 10 0 21 7 24 6 2 4
5 -5 5 -12 1 -16 -7 -15 -24z"/>
<path d="M1680 1146 c0 -2 8 -10 18 -17 15 -13 16 -12 3 4 -13 16 -21 21 -21
13z"/>
<path d="M1660 1119 c0 -5 5 -7 10 -4 6 3 10 8 10 11 0 2 -4 4 -10 4 -5 0 -10
-5 -10 -11z"/>
<path d="M1964 1112 c3 -5 0 -13 -6 -15 -9 -4 -10 -6 -1 -6 17 -1 25 16 12 25
-7 4 -9 3 -5 -4z"/>
<path d="M3062 1108 c-13 -17 -13 -73 0 -60 9 9 20 72 13 72 -1 0 -7 -6 -13
-12z"/>
<path d="M3176 1103 c-6 -14 -5 -15 5 -6 7 7 10 15 7 18 -3 3 -9 -2 -12 -12z"/>
<path d="M2122 1090 c0 -14 2 -19 5 -12 2 6 2 18 0 25 -3 6 -5 1 -5 -13z"/>
<path d="M2130 1260 c-6 -11 -8 -20 -6 -20 3 0 10 9 16 20 6 11 8 20 6 20 -3
0 -10 -9 -16 -20z"/>
<path d="M2302 4770 c1 -35 8 -33 12 4 2 14 0 26 -5 26 -4 0 -7 -14 -7 -30z"/>
<path d="M2303 4715 c-10 -11 -9 -13 6 -12 11 1 17 7 14 14 -6 16 -5 16 -20
-2z"/>
<path d="M2345 4680 c-3 -5 -1 -10 4 -10 6 0 11 5 11 10 0 6 -2 10 -4 10 -3 0
-8 -4 -11 -10z"/>
<path d="M2563 4675 c6 -7 16 -10 21 -7 5 3 7 -2 3 -10 -7 -19 17 -18 36 2 10
10 9 12 -6 7 -10 -4 -20 -1 -23 6 -2 7 -13 13 -24 14 -16 1 -17 -1 -7 -12z"/>
<path d="M2296 4585 c9 -14 20 -22 25 -19 15 9 10 20 -16 32 -25 12 -25 12 -9
-13z"/>
<path d="M2668 4583 c7 -3 16 -2 19 1 4 3 -2 6 -13 5 -11 0 -14 -3 -6 -6z"/>
<path d="M2245 4530 c4 -6 11 -8 16 -5 14 9 11 15 -7 15 -8 0 -12 -5 -9 -10z"/>
<path d="M2704 4509 c-11 -18 14 -35 29 -20 10 10 9 11 -5 6 -20 -8 -25 10 -5
18 9 4 9 6 0 6 -6 1 -15 -4 -19 -10z"/>
<path d="M2347 4489 c6 -23 9 -24 16 -5 3 8 0 17 -7 19 -10 4 -12 -1 -9 -14z"/>
<path d="M2395 4450 c-16 -17 -16 -20 -3 -15 9 4 19 13 22 21 7 19 2 18 -19
-6z"/>
<path d="M2334 4417 c-4 -12 -12 -25 -18 -29 -6 -4 -7 -10 -3 -15 5 -4 12 -2
16 5 4 7 14 12 21 10 17 -4 23 39 5 46 -9 3 -17 -3 -21 -17z"/>
<path d="M2420 4430 c0 -5 5 -10 10 -10 6 0 10 5 10 10 0 6 -4 10 -10 10 -5 0
-10 -4 -10 -10z"/>
<path d="M2728 4359 c-21 -22 -24 -36 -5 -20 8 6 16 9 18 6 3 -2 5 5 6 15 2
23 3 24 -19 -1z"/>
<path d="M2335 4300 c-3 -5 -1 -10 4 -10 6 0 11 5 11 10 0 6 -2 10 -4 10 -3 0
-8 -4 -11 -10z"/>
<path d="M2715 4170 c3 -5 8 -10 11 -10 2 0 4 5 4 10 0 6 -5 10 -11 10 -5 0
-7 -4 -4 -10z"/>
<path d="M2715 4091 c-3 -5 0 -13 6 -17 7 -4 9 -3 5 4 -3 5 0 13 6 15 9 4 10
6 1 6 -6 1 -14 -3 -18 -8z"/>
<path d="M1973 4003 c4 -3 3 -11 -2 -17 -6 -8 0 -11 20 -11 16 -1 29 0 29 1 0
8 -33 34 -42 34 -6 0 -8 -3 -5 -7z"/>
<path d="M2875 3970 c3 -5 8 -10 11 -10 2 0 4 5 4 10 0 6 -5 10 -11 10 -5 0
-7 -4 -4 -10z"/>
<path d="M1938 3943 c7 -3 16 -2 19 1 4 3 -2 6 -13 5 -11 0 -14 -3 -6 -6z"/>
<path d="M1932 3908 c-14 -14 -16 -28 -3 -28 5 0 11 9 14 20 6 23 5 24 -11 8z"/>
<path d="M1896 3885 c-3 -8 -1 -15 4 -15 6 0 10 7 10 15 0 8 -2 15 -4 15 -2 0
-6 -7 -10 -15z"/>
<path d="M2867 3876 c-6 -14 1 -26 14 -26 4 0 7 9 6 20 -1 23 -12 26 -20 6z"/>
<path d="M2981 3864 c-1 -6 -12 -10 -25 -9 -19 2 -23 -1 -19 -13 4 -9 2 -13
-4 -9 -6 4 -17 -1 -24 -11 -13 -15 -12 -16 4 -3 14 11 17 11 17 0 0 -8 5 -6
12 6 16 29 18 31 27 17 5 -9 14 -10 32 -3 16 6 18 10 7 10 -9 1 -19 7 -21 14
-3 7 -6 8 -6 1z"/>
<path d="M2875 3830 c3 -5 8 -10 11 -10 2 0 4 5 4 10 0 6 -5 10 -11 10 -5 0
-7 -4 -4 -10z"/>
<path d="M2995 3794 c1 -16 -4 -21 -22 -21 -12 0 -23 4 -23 9 0 5 5 6 10 3 6
-3 10 -1 10 4 0 14 -17 14 -25 1 -3 -5 -11 -10 -16 -10 -6 0 -8 4 -5 8 3 5 -1
9 -9 9 -11 0 -12 -4 -4 -13 6 -7 8 -18 4 -23 -4 -7 5 -9 24 -7 18 2 31 -1 31
-8 0 -7 3 -7 8 -1 9 13 46 19 38 7 -3 -6 2 -8 14 -5 25 7 77 -14 93 -37 7 -10
17 -19 22 -21 6 -2 9 -8 7 -12 -1 -5 2 -6 8 -2 5 3 10 1 10 -5 0 -12 24 -40
34 -40 3 0 -3 13 -12 30 -9 16 -21 30 -25 30 -5 0 -5 5 -2 10 3 6 -1 10 -9 10
-9 0 -16 5 -16 10 0 6 -7 10 -15 10 -8 0 -15 4 -15 9 0 8 -28 19 -68 27 -29 6
-41 14 -45 31 -3 12 -4 11 -2 -3z"/>
<path d="M2997 3729 c7 -7 15 -10 18 -7 3 3 -2 9 -12 12 -14 6 -15 5 -6 -5z"/>
<path d="M3010 3700 c0 -5 5 -10 10 -10 6 0 10 5 10 10 0 6 -4 10 -10 10 -5 0
-10 -4 -10 -10z"/>
<path d="M3199 3612 c12 -8 11 -11 -3 -15 -15 -4 -15 -5 1 -3 19 1 21 19 1 24
-10 3 -10 1 1 -6z"/>
<path d="M1816 3595 c-9 -26 -7 -32 5 -12 6 10 9 21 6 23 -2 3 -7 -2 -11 -11z"/>
<path d="M1976 3557 c3 -10 9 -15 12 -12 3 3 0 11 -7 18 -10 9 -11 8 -5 -6z"/>
<path d="M3189 3553 c0 -5 -2 -18 -5 -30 -2 -13 1 -23 7 -23 5 0 8 4 5 9 -4 5
0 12 6 14 10 4 9 6 -1 6 -11 1 -11 4 -1 16 9 10 9 15 1 15 -6 0 -11 -3 -12 -7z"/>
<path d="M1996 3534 c-8 -20 -8 -24 2 -24 4 0 8 9 9 20 2 24 -3 26 -11 4z"/>
<path d="M1926 3497 c3 -10 9 -15 12 -12 3 3 0 11 -7 18 -10 9 -11 8 -5 -6z"/>
<path d="M3175 3400 c3 -5 8 -10 11 -10 2 0 4 5 4 10 0 6 -5 10 -11 10 -5 0
-7 -4 -4 -10z"/>
<path d="M1910 3379 c0 -5 5 -7 10 -4 6 3 10 8 10 11 0 2 -4 4 -10 4 -5 0 -10
-5 -10 -11z"/>
<path d="M2026 3364 c-3 -9 -11 -12 -18 -8 -9 5 -10 4 -3 -4 6 -6 23 -13 39
-16 16 -3 26 -2 22 1 -3 3 2 12 12 20 16 12 16 13 -2 6 -11 -4 -17 -2 -13 3 3
6 -3 10 -13 11 -10 1 -21 -5 -24 -13z m28 -15 c-3 -5 -10 -7 -15 -3 -5 3 -7
10 -3 15 3 5 10 7 15 3 5 -3 7 -10 3 -15z"/>
<path d="M3216 3353 c-6 -14 -5 -15 5 -6 7 7 10 15 7 18 -3 3 -9 -2 -12 -12z"/>
<path d="M1950 3345 c0 -3 10 -16 21 -28 l21 -22 -11 22 c-11 22 -31 40 -31
28z"/>
<path d="M1919 3308 c-5 -18 -6 -39 -2 -34 4 3 13 0 22 -6 12 -10 12 -7 -2 8
-9 11 -14 24 -10 27 3 4 3 7 0 7 -4 0 -7 -1 -8 -2z"/>
<path d="M2000 3279 c0 -5 9 -9 20 -9 11 0 20 2 20 4 0 2 -9 6 -20 9 -11 3
-20 1 -20 -4z"/>
<path d="M3230 3220 c-9 -6 -10 -10 -3 -10 6 0 15 5 18 10 8 12 4 12 -15 0z"/>
<path d="M3267 3219 c7 -7 15 -10 18 -7 3 3 -2 9 -12 12 -14 6 -15 5 -6 -5z"/>
<path d="M3240 3200 c-13 -8 -12 -10 3 -10 9 0 17 5 17 10 0 12 -1 12 -20 0z"/>
<path d="M3295 3199 c-4 -6 -5 -12 -2 -15 2 -3 7 2 10 11 7 17 1 20 -8 4z"/>
<path d="M3270 3181 c0 -6 4 -13 10 -16 6 -3 7 1 4 9 -7 18 -14 21 -14 7z"/>
<path d="M2298 3123 c-7 -25 18 -61 32 -47 7 7 7 19 1 35 -5 13 -10 20 -11 14
0 -5 -4 -4 -9 3 -6 11 -9 9 -13 -5z"/>
<path d="M2340 3122 c0 -7 5 -12 11 -12 5 0 8 -4 5 -8 -2 -4 0 -14 5 -22 7
-11 8 -10 6 8 -4 25 -27 55 -27 34z"/>
<path d="M3370 3120 c0 -5 5 -10 11 -10 5 0 7 5 4 10 -3 6 -8 10 -11 10 -2 0
-4 -4 -4 -10z"/>
<path d="M3342 3100 c-18 -29 -15 -38 4 -12 9 13 14 25 12 27 -2 2 -9 -5 -16
-15z"/>
<path d="M3355 3080 c-3 -5 -1 -10 4 -10 6 0 11 5 11 10 0 6 -2 10 -4 10 -3 0
-8 -4 -11 -10z"/>
<path d="M2274 3072 c3 -5 0 -13 -6 -15 -8 -3 -6 -6 5 -6 19 -1 23 14 5 25 -6
4 -8 3 -4 -4z"/>
<path d="M2335 3060 c3 -5 8 -10 11 -10 2 0 4 5 4 10 0 6 -5 10 -11 10 -5 0
-7 -4 -4 -10z"/>
<path d="M2316 3047 c3 -10 9 -15 12 -12 3 3 0 11 -7 18 -10 9 -11 8 -5 -6z"/>
<path d="M3386 3043 c-6 -14 -5 -15 5 -6 7 7 10 15 7 18 -3 3 -9 -2 -12 -12z"/>
<path d="M3414 3052 c3 -6 -1 -18 -10 -26 -8 -9 -11 -16 -5 -16 17 0 33 38 19
46 -6 4 -8 3 -4 -4z"/>
<path d="M3420 3005 c-7 -8 -15 -13 -19 -11 -3 2 -6 -9 -6 -24 -1 -16 3 -26 7
-24 5 3 6 9 3 14 -2 4 5 19 16 34 21 27 21 37 -1 11z"/>
<path d="M2340 3001 c0 -6 4 -13 10 -16 6 -3 7 1 4 9 -7 18 -14 21 -14 7z"/>
<path d="M3190 2999 c0 -5 5 -7 10 -4 6 3 10 8 10 11 0 2 -4 4 -10 4 -5 0 -10
-5 -10 -11z"/>
<path d="M3230 2999 c0 -5 5 -7 10 -4 6 3 10 8 10 11 0 2 -4 4 -10 4 -5 0 -10
-5 -10 -11z"/>
<path d="M3270 2979 c0 -5 5 -7 10 -4 6 3 10 8 10 11 0 2 -4 4 -10 4 -5 0 -10
-5 -10 -11z"/>
<path d="M3244 2951 c3 -5 -1 -14 -9 -21 -8 -7 -12 -16 -9 -21 3 -5 -1 -9 -8
-9 -11 0 -11 -2 0 -9 7 -4 14 -17 15 -29 0 -11 5 -18 9 -16 4 3 8 0 8 -5 0 -6
5 -11 12 -11 6 0 4 8 -6 19 -10 11 -15 25 -11 30 3 6 1 11 -5 11 -6 0 -8 5 -5
10 4 6 10 8 15 5 4 -3 7 3 6 12 -2 10 1 21 6 24 5 3 2 9 -7 12 -9 4 -14 3 -11
-2z"/>
<path d="M2173 2935 c0 -8 4 -12 9 -9 5 3 6 10 3 15 -9 13 -12 11 -12 -6z"/>
<path d="M3112 2938 c-7 -7 -12 -16 -12 -21 0 -5 7 -1 16 8 9 9 14 18 12 20
-2 3 -10 -1 -16 -7z"/>
<path d="M2200 2910 c0 -5 -8 -7 -17 -4 -15 5 -16 4 -3 -5 14 -10 7 -16 -13
-12 -5 1 -6 -3 -2 -9 5 -8 11 -8 20 0 10 8 14 7 18 -2 2 -7 4 -1 4 15 0 15 -1
27 -3 27 -2 0 -4 -4 -4 -10z"/>
<path d="M3335 2881 c-3 -5 -1 -12 5 -16 5 -3 10 -1 10 5 0 6 5 8 10 5 6 -3
10 -1 10 4 0 13 -27 14 -35 2z"/>
<path d="M1985 2860 c-3 -5 0 -10 7 -10 9 0 9 -3 -2 -10 -13 -8 -12 -10 3 -10
9 0 17 -5 17 -11 0 -5 5 -7 10 -4 6 4 7 11 4 17 -5 8 -1 9 12 5 14 -5 12 -2
-6 13 -28 22 -36 24 -45 10z"/>
<path d="M3471 2834 c0 -11 3 -14 6 -6 3 7 2 16 -1 19 -3 4 -6 -2 -5 -13z"/>
<path d="M3133 2825 c0 -8 4 -12 9 -9 5 3 6 10 3 15 -9 13 -12 11 -12 -6z"/>
<path d="M3425 2780 c-3 -6 1 -7 9 -4 18 7 21 14 7 14 -6 0 -13 -4 -16 -10z"/>
<path d="M2110 2760 c6 -11 15 -18 21 -15 13 9 11 13 -12 25 -19 11 -20 10 -9
-10z"/>
<path d="M3185 2770 c-8 -13 9 -20 24 -11 10 6 9 10 -3 14 -8 3 -18 2 -21 -3z"/>
<path d="M3200 2740 c-8 -5 -11 -10 -7 -10 4 0 3 -9 -3 -20 -6 -12 -16 -18
-23 -14 -7 4 -9 3 -4 -1 4 -5 17 -10 28 -12 16 -2 19 1 14 17 -5 15 -3 18 9
14 9 -3 13 -10 10 -15 -3 -5 -2 -9 3 -8 20 3 27 -2 13 -12 -12 -8 -11 -9 5 -7
15 2 20 -2 19 -20 -1 -21 0 -22 15 -6 12 12 13 18 3 21 -6 3 -9 10 -6 15 4 7
2 8 -4 4 -15 -9 -16 6 -1 21 7 7 3 10 -15 8 -14 -2 -30 3 -37 11 -10 12 -9 13
6 8 13 -5 16 -4 11 4 -9 14 -16 15 -36 2z"/>
<path d="M2077 2719 c7 -7 15 -10 18 -7 3 3 -2 9 -12 12 -14 6 -15 5 -6 -5z"/>
<path d="M3187 2652 c1 -8 3 -16 3 -18 0 -2 4 -4 8 -4 4 0 9 10 9 22 2 16 0
19 -6 9 -5 -7 -11 -9 -13 -5 -3 5 -3 3 -1 -4z"/>
<path d="M2100 2620 c6 -11 13 -20 16 -20 2 0 0 9 -6 20 -6 11 -13 20 -16 20
-2 0 0 -9 6 -20z"/>
<path d="M3275 2620 c-3 -6 1 -7 9 -4 18 7 21 14 7 14 -6 0 -13 -4 -16 -10z"/>
<path d="M3290 2600 c0 -5 5 -10 11 -10 5 0 7 5 4 10 -3 6 -8 10 -11 10 -2 0
-4 -4 -4 -10z"/>
<path d="M3294 2554 c-1 -13 2 -21 7 -18 11 6 12 31 2 37 -5 3 -9 -6 -9 -19z"/>
<path d="M3286 2483 c-6 -14 -5 -15 5 -6 7 7 10 15 7 18 -3 3 -9 -2 -12 -12z"/>
<path d="M3297 2439 c4 -13 8 -18 11 -10 2 7 -1 18 -6 23 -8 8 -9 4 -5 -13z"/>
<path d="M3500 2361 c0 -7 -4 -10 -9 -7 -5 3 -12 -1 -15 -10 -4 -10 -2 -13 6
-8 7 5 9 2 5 -8 -4 -11 -1 -15 9 -14 8 1 14 6 13 11 0 4 4 11 11 15 8 5 6 11
-5 20 -11 9 -15 9 -15 1z"/>
<path d="M1355 2300 c3 -5 8 -10 11 -10 2 0 4 5 4 10 0 6 -5 10 -11 10 -5 0
-7 -4 -4 -10z"/>
<path d="M3789 2298 c-5 -16 -4 -50 2 -59 3 -6 6 5 6 25 -1 30 -4 44 -8 34z"/>
<path d="M3783 2201 c-10 -15 -9 -22 2 -31 11 -9 15 -9 15 -1 0 6 -6 11 -12
11 -10 0 -9 3 1 9 7 5 12 14 10 20 -2 6 -9 3 -16 -8z"/>
<path d="M1820 2200 c0 -5 5 -10 11 -10 5 0 7 5 4 10 -3 6 -8 10 -11 10 -2 0
-4 -4 -4 -10z"/>
<path d="M1805 2172 c-12 -8 -37 -52 -31 -52 3 0 14 14 26 30 22 31 23 35 5
22z"/>
<path d="M3270 2160 c0 -5 5 -10 10 -10 6 0 10 5 10 10 0 6 -4 10 -10 10 -5 0
-10 -4 -10 -10z"/>
<path d="M3775 2074 c-1 -58 3 -84 11 -84 7 0 14 7 18 15 3 8 2 15 -3 15 -4 0
-6 29 -5 64 2 43 -1 66 -9 69 -9 3 -12 -18 -12 -79z"/>
<path d="M3353 2115 c0 -8 6 -16 13 -19 8 -3 12 3 11 15 -1 22 -24 26 -24 4z"/>
<path d="M1785 2110 c-4 -6 -12 -8 -18 -4 -7 3 -1 -4 13 -16 l25 -21 -25 6
c-21 5 -22 4 -7 -5 23 -14 42 -3 27 15 -7 8 -9 19 -5 25 3 5 4 10 1 10 -3 0
-8 -5 -11 -10z"/>
<path d="M1365 2100 c-3 -6 1 -7 9 -4 18 7 21 14 7 14 -6 0 -13 -4 -16 -10z"/>
<path d="M1373 2074 c-4 -10 -14 -25 -22 -32 -14 -10 -14 -11 3 -5 14 5 17 3
11 -7 -5 -8 -4 -11 3 -6 6 3 18 -1 26 -10 9 -8 16 -11 16 -5 0 6 -9 15 -20 21
-17 9 -18 14 -9 31 6 12 8 23 5 26 -3 3 -9 -3 -13 -13z"/>
<path d="M1736 2082 c-2 -4 -1 -14 4 -22 7 -11 9 -9 7 8 -1 24 -3 26 -11 14z"/>
<path d="M3276 2062 c-3 -5 1 -9 9 -9 8 0 12 4 9 9 -3 4 -7 8 -9 8 -2 0 -6 -4
-9 -8z"/>
<path d="M1721 2034 c0 -11 3 -14 6 -6 3 7 2 16 -1 19 -3 4 -6 -2 -5 -13z"/>
<path d="M3216 2041 c-3 -5 0 -11 7 -14 8 -3 14 1 14 9 0 16 -13 19 -21 5z"/>
<path d="M3433 2035 c-8 -22 6 -33 17 -15 13 20 12 30 0 30 -6 0 -13 -7 -17
-15z"/>
<path d="M1366 1993 c16 -12 13 -17 -8 -14 -4 0 -5 -5 -2 -13 3 -8 1 -17 -4
-20 -6 -3 -8 -16 -5 -29 4 -20 3 -21 -10 -4 -18 21 -37 22 -37 1 0 -9 -5 -13
-12 -9 -7 4 -4 0 6 -9 10 -8 23 -13 29 -9 6 4 7 1 3 -6 -5 -7 -14 -10 -20 -8
-7 3 -13 -1 -13 -9 0 -13 11 -18 30 -15 4 0 7 -3 7 -7 0 -4 9 -8 20 -9 11 -1
20 2 20 8 0 5 -3 8 -7 8 -37 -6 -45 22 -13 44 11 8 19 16 17 18 -1 2 3 -2 9
-9 10 -10 12 -8 10 12 0 13 -4 22 -8 20 -4 -2 -9 0 -13 6 -3 5 -1 10 5 10 6 0
9 4 5 9 -3 5 -1 12 4 16 15 8 3 32 -16 32 -13 0 -13 -2 3 -14z m-31 -93 c3 -6
-1 -7 -9 -4 -18 7 -21 14 -7 14 6 0 13 -4 16 -10z"/>
<path d="M1715 2000 c3 -5 8 -10 11 -10 2 0 4 5 4 10 0 6 -5 10 -11 10 -5 0
-7 -4 -4 -10z"/>
<path d="M3466 1994 c7 -3 11 -13 9 -22 -1 -9 0 -11 2 -4 3 7 9 10 14 7 5 -4
9 -2 9 3 0 6 -7 13 -16 16 -18 7 -35 7 -18 0z"/>
<path d="M1266 1982 c-3 -5 4 -17 16 -26 18 -16 20 -16 15 -2 -4 9 -2 16 3 16
6 0 10 -7 10 -15 0 -8 5 -15 12 -15 6 0 8 3 5 6 -3 4 -2 16 4 27 9 15 8 18 -2
11 -19 -11 -60 -14 -54 -3 4 5 4 9 1 9 -3 0 -7 -4 -10 -8z"/>
<path d="M2013 1968 c2 -17 6 -24 16 -20 10 4 12 1 6 -9 -5 -8 -4 -11 0 -6 12
10 16 39 5 32 -5 -3 -13 2 -18 12 -9 14 -10 13 -9 -9z"/>
<path d="M3777 1973 c-8 -14 -1 -57 10 -60 5 -2 10 12 10 32 0 32 -10 45 -20
28z"/>
<path d="M2073 1955 c0 -8 4 -12 9 -9 5 3 6 10 3 15 -9 13 -12 11 -12 -6z"/>
<path d="M1895 1939 c-4 -6 -5 -12 -2 -15 2 -3 7 2 10 11 7 17 1 20 -8 4z"/>
<path d="M4018 1943 c7 -3 16 -2 19 1 4 3 -2 6 -13 5 -11 0 -14 -3 -6 -6z"/>
<path d="M992 1916 c1 -14 5 -23 9 -20 7 4 0 44 -7 44 -2 0 -3 -11 -2 -24z"/>
<path d="M3463 1925 c0 -8 4 -12 9 -9 5 3 6 10 3 15 -9 13 -12 11 -12 -6z"/>
<path d="M2086 1919 c4 -8 30 -6 38 2 3 3 -5 5 -19 5 -13 0 -22 -3 -19 -7z"/>
<path d="M1959 1905 c-1 -3 -2 -11 -3 -17 -1 -7 -8 -12 -15 -10 -17 3 -5 -15
17 -27 16 -8 17 -5 14 25 -4 30 -10 43 -13 29z"/>
<path d="M1987 1894 c-10 -11 -9 -36 2 -29 5 3 12 1 16 -5 4 -6 11 -8 16 -5 5
4 9 -4 9 -16 0 -22 0 -22 14 -3 13 16 12 21 -2 35 -10 9 -19 12 -21 7 -1 -5
-8 -2 -15 7 -6 9 -15 13 -19 9z"/>
<path d="M2090 1896 c0 -2 8 -10 18 -17 15 -13 16 -12 3 4 -13 16 -21 21 -21
13z"/>
<path d="M1470 1882 c0 -5 7 -9 15 -9 8 0 12 4 9 9 -3 4 -9 8 -15 8 -5 0 -9
-4 -9 -8z"/>
<path d="M3821 1874 c0 -11 3 -14 6 -6 3 7 2 16 -1 19 -3 4 -6 -2 -5 -13z"/>
<path d="M987 1866 c-3 -8 -2 -18 3 -21 13 -8 20 9 11 24 -6 10 -10 9 -14 -3z"/>
<path d="M3732 1875 c4 -4 3 -16 -3 -26 -5 -11 -7 -19 -5 -19 3 0 10 9 16 19
7 15 7 22 -2 27 -7 4 -10 4 -6 -1z"/>
<path d="M1535 1860 c3 -5 8 -10 11 -10 2 0 4 5 4 10 0 6 -5 10 -11 10 -5 0
-7 -4 -4 -10z"/>
<path d="M1465 1850 c-3 -6 1 -7 9 -4 18 7 21 14 7 14 -6 0 -13 -4 -16 -10z"/>
<path d="M4029 1846 c7 -8 8 -17 3 -20 -4 -2 -7 -19 -6 -35 1 -17 -3 -31 -9
-31 -6 0 -7 -3 -4 -6 4 -4 13 -1 21 5 11 9 12 19 6 36 -6 15 -6 27 0 30 11 7
2 35 -12 35 -6 0 -6 -6 1 -14z"/>
<path d="M1504 1839 c-5 -8 -3 -9 6 -4 7 4 16 2 22 -6 8 -12 9 -12 6 0 -6 20
-24 25 -34 10z"/>
<path d="M3310 1846 c0 -2 7 -7 16 -10 8 -3 12 -2 9 4 -6 10 -25 14 -25 6z"/>
<path d="M986 1798 c0 -18 7 -34 14 -36 9 -3 11 3 6 23 -4 17 -3 24 3 20 7 -3
8 0 5 9 -11 28 -29 17 -28 -16z"/>
<path d="M3200 1820 c-8 -5 -12 -11 -10 -14 3 -2 14 2 24 10 22 15 10 19 -14
4z"/>
<path d="M3721 1811 c-8 -5 -10 -14 -6 -21 6 -9 10 -8 17 4 12 21 7 28 -11 17z"/>
<path d="M3973 1796 c-3 -6 -3 -8 2 -4 4 4 13 3 20 -2 8 -7 12 -5 12 3 0 16
-25 18 -34 3z"/>
<path d="M1870 1786 c0 -2 7 -7 16 -10 8 -3 12 -2 9 4 -6 10 -25 14 -25 6z"/>
<path d="M3320 1780 c19 -13 30 -13 30 0 0 6 -10 10 -22 10 -19 0 -20 -2 -8
-10z"/>
<path d="M3361 1747 c-1 -10 -5 -16 -9 -13 -5 3 -9 0 -9 -7 0 -7 10 -12 23
-12 13 0 19 4 14 10 -4 6 -10 17 -13 25 -4 12 -6 11 -6 -3z"/>
<path d="M1715 1740 c-3 -5 -1 -10 4 -10 6 0 11 5 11 10 0 6 -2 10 -4 10 -3 0
-8 -4 -11 -10z"/>
<path d="M3235 1739 c-3 -4 2 -6 10 -5 21 3 28 13 10 13 -9 0 -18 -4 -20 -8z"/>
<path d="M3989 1749 c-9 -43 2 -91 18 -75 4 5 2 11 -5 13 -6 3 -9 9 -6 14 3 6
12 2 20 -8 9 -12 13 -13 14 -5 0 7 4 11 9 8 5 -4 8 2 6 11 -1 10 3 24 9 32 9
12 7 12 -12 2 -18 -10 -27 -10 -38 0 -8 6 -14 10 -15 8z m51 -33 c0 -3 -4 -8
-10 -11 -5 -3 -10 -1 -10 4 0 6 5 11 10 11 6 0 10 -2 10 -4z"/>
<path d="M3214 1722 c3 -5 0 -13 -6 -15 -9 -4 -10 -6 -1 -6 17 -1 25 16 12 25
-7 4 -9 3 -5 -4z"/>
<path d="M1717 1704 c6 -16 19 -18 27 -5 3 5 -3 11 -13 14 -14 3 -18 1 -14 -9z"/>
<path d="M1235 1700 c3 -5 8 -10 11 -10 2 0 4 5 4 10 0 6 -5 10 -11 10 -5 0
-7 -4 -4 -10z"/>
<path d="M1176 1687 c3 -10 9 -15 12 -12 3 3 0 11 -7 18 -10 9 -11 8 -5 -6z"/>
<path d="M1979 1683 c-13 -16 -12 -17 4 -4 9 7 17 15 17 17 0 8 -8 3 -21 -13z"/>
<path d="M1160 1573 c0 -1 9 -7 19 -12 14 -8 22 -7 31 4 10 12 7 14 -19 12
-17 -1 -31 -3 -31 -4z"/>
<path d="M1032 1561 c-9 -6 -7 -12 7 -25 20 -18 20 -18 16 4 -6 29 -8 31 -23
21z"/>
<path d="M4096 1541 c-4 -6 -2 -11 5 -11 8 0 8 -4 1 -13 -8 -10 -5 -13 16 -14
15 0 19 1 9 4 -9 2 -15 8 -13 12 3 4 1 13 -3 20 -6 9 -11 10 -15 2z"/>
<path d="M4195 1510 c-4 -6 -11 -8 -16 -5 -5 4 -9 1 -9 -4 0 -16 16 -13 30 4
7 8 10 15 7 15 -3 0 -9 -5 -12 -10z"/>
<path d="M1060 1501 c0 -6 4 -13 10 -16 6 -3 7 1 4 9 -7 18 -14 21 -14 7z"/>
<path d="M900 1459 c-11 -6 -12 -9 -2 -9 7 0 11 -4 8 -9 -8 -13 37 -22 49 -10
7 7 4 8 -7 4 -12 -5 -18 -2 -18 8 0 21 -13 28 -30 16z"/>
<path d="M4175 1461 c-3 -5 -2 -12 3 -15 5 -3 9 1 9 9 0 17 -3 19 -12 6z"/>
<path d="M4160 1420 c-8 -5 -12 -11 -10 -14 3 -2 14 2 24 10 22 15 10 19 -14
4z"/>
<path d="M4307 1216 c-4 -10 -1 -13 8 -9 8 3 12 9 9 14 -7 12 -11 11 -17 -5z"/>
<path d="M687 1070 c-3 -13 0 -20 8 -20 8 0 17 -9 20 -20 5 -16 10 -18 24 -10
25 13 33 37 15 44 -9 3 -12 1 -9 -4 3 -6 3 -15 0 -21 -4 -6 -16 2 -30 21 -21
28 -23 29 -28 10z"/>
<path d="M690 900 c14 -11 32 -19 40 -19 11 1 10 3 -2 6 -10 2 -18 8 -18 13 0
4 -10 10 -22 13 -22 6 -22 6 2 -13z"/>
</g>
</svg>
